<svg xmlns="http://www.w3.org/2000/svg" viewBox="0 0 243.17 241.06"><defs><style>.cls-1{font-size:36px;fill:#414042;font-family:FjallaOne, FjallaOne;letter-spacing:0.03em;}.cls-2{letter-spacing:0.01em;}.cls-3{letter-spacing:0.03em;}.cls-4{letter-spacing:0.02em;}.cls-5{letter-spacing:0.01em;}.cls-6{letter-spacing:0.01em;}.cls-7{letter-spacing:0.01em;}.cls-8{letter-spacing:0.02em;}.cls-9{letter-spacing:0.02em;}.cls-10{letter-spacing:0em;}.cls-11{letter-spacing:0em;}.cls-12{letter-spacing:0em;}.cls-13{letter-spacing:0em;}.cls-14{letter-spacing:0.01em;}.cls-15{letter-spacing:0.05em;}.cls-16{letter-spacing:0.02em;}.cls-17{letter-spacing:0.03em;}.cls-18{letter-spacing:0.02em;}.cls-19{letter-spacing:0.01em;}.cls-20{letter-spacing:0.01em;}.cls-21{letter-spacing:0.01em;}.cls-22{letter-spacing:0.02em;}.cls-23{letter-spacing:0.03em;}.cls-24{letter-spacing:0.01em;}.cls-25{letter-spacing:0.02em;}.cls-26{letter-spacing:0.01em;}.cls-27{letter-spacing:0.02em;}.cls-28{letter-spacing:0.02em;}.cls-29{letter-spacing:0em;}.cls-30{letter-spacing:0.03em;}.cls-31{letter-spacing:0.01em;}.cls-32{letter-spacing:0.01em;}.cls-33{letter-spacing:0.01em;}.cls-34{letter-spacing:0.01em;}.cls-35{letter-spacing:0.02em;}.cls-36{letter-spacing:0.02em;}.cls-37{letter-spacing:0.01em;}.cls-38{letter-spacing:0.02em;}</style></defs><title>Asset 7</title><g id="Layer_2" data-name="Layer 2"><g id="Layer_1-2" data-name="Layer 1"><text class="cls-1" transform="translate(0 33.01)">T<tspan class="cls-2" x="16.14" y="0">h</tspan><tspan class="cls-3" x="34.56" y="0">e </tspan><tspan class="cls-4" x="60.27" y="0">s</tspan><tspan class="cls-5" x="75.54" y="0">o</tspan><tspan class="cls-6" x="92.75" y="0">n</tspan><tspan class="cls-7" x="111.14" y="0">g</tspan><tspan class="cls-8" x="129.04" y="0">s </tspan><tspan class="cls-9" x="153.11" y="0">o</tspan><tspan class="cls-3" x="170.43" y="0">f </tspan><tspan class="cls-10"><tspan x="0" y="50">i</tspan><tspan class="cls-11" x="9.56" y="50">M</tspan><tspan class="cls-12" x="34.8" y="50">M</tspan><tspan class="cls-13" x="60.02" y="50">I</tspan><tspan class="cls-14" x="69.88" y="50">G</tspan><tspan class="cls-15" x="88.56" y="50">R</tspan><tspan class="cls-8" x="108.77" y="50">A</tspan><tspan class="cls-16" x="126.67" y="50">N</tspan><tspan class="cls-17" x="147.29" y="50">T</tspan><tspan class="cls-8" x="163.68" y="50">S</tspan></tspan><tspan class="cls-18"><tspan x="0" y="100">H</tspan><tspan class="cls-19" x="18.59" y="100">A</tspan><tspan class="cls-20" x="35.36" y="100">v</tspan><tspan class="cls-3" x="51.25" y="100">e </tspan><tspan class="cls-21" x="76.96" y="100">a</tspan><tspan class="cls-22" x="93.5" y="100">l</tspan><tspan class="cls-23" x="103.42" y="100">w</tspan><tspan class="cls-24" x="127.88" y="100">a</tspan><tspan class="cls-8" x="144.61" y="100">ys </tspan><tspan class="cls-25" x="185.37" y="100">t</tspan><tspan class="cls-26" x="198.01" y="100">o</tspan><tspan class="cls-27" x="215.2" y="100">l</tspan><tspan class="cls-3" x="224.9" y="100">d</tspan></tspan><tspan class="cls-28"><tspan x="0" y="150">t</tspan><tspan class="cls-29" x="16.03" y="150">h</tspan><tspan class="cls-3" x="35.58" y="150">e </tspan><tspan class="cls-30" x="59.67" y="150">S</tspan><tspan x="77.71" y="150">T</tspan><tspan class="cls-31" x="93.74" y="150">O</tspan><tspan class="cls-32" x="112.35" y="150">R</tspan><tspan class="cls-3" x="131.28" y="150">Y </tspan></tspan><tspan class="cls-9"><tspan x="0" y="200">O</tspan><tspan class="cls-3" x="17.33" y="200">F </tspan><tspan class="cls-33" x="37.65" y="200">O</tspan><tspan class="cls-34" x="54.8" y="200">u</tspan><tspan class="cls-3" x="73.09" y="200">r </tspan><tspan class="cls-18" x="96.44" y="200">n</tspan><tspan class="cls-35" x="114.99" y="200">a</tspan><tspan class="cls-36" x="131.78" y="200">t</tspan><tspan class="cls-37" x="144.43" y="200">i</tspan><tspan class="cls-5" x="153.94" y="200">o</tspan><tspan class="cls-38" x="171.14" y="200">n</tspan><tspan class="cls-3" x="189.71" y="200">.</tspan></tspan></text></g></g></svg>