<svg xmlns="http://www.w3.org/2000/svg" viewBox="0 0 388.39 382.75"><defs><style>.cls-1{fill:#2b2b2b;}</style></defs><title>Asset 11</title><g id="Layer_2" data-name="Layer 2"><g id="Layer_1-2" data-name="Layer 1"><path class="cls-1" d="M7.87,9.5H0V3.66H23.13V9.5H15.29V52.56H7.87Z"/><path class="cls-1" d="M29,.49h7.24V9.76l-.37,6.76a9,9,0,0,1,7.67-3.84c4.58,0,7.21,3.26,7.21,9.68v30.2H43.53V22.61c0-3.46-1.09-4.64-3.15-4.64a5.34,5.34,0,0,0-4.12,2.75V52.56H29Z"/><path class="cls-1" d="M57.85,36.41V29c0-15.06,7.19-16.29,11.37-16.29,5.21,0,9.93,2.81,9.93,12.31a45,45,0,0,1-.94,9.22H65.12v4c0,6.87.92,9.19,4.21,9.19,1.77,0,3.43-1.29,3.43-5.44V40.73h6v1.52C78.81,49.72,75.14,53,68.39,53S57.85,48.15,57.85,36.41ZM72.4,29.34c.09-.83.11-3,.11-4,0-5.21-1.23-7.33-3.63-7.33s-3.75,2.18-3.75,9v2.41Z"/><path class="cls-1" d="M99.93,39.9H105c0,5.73,1.06,7.5,4.21,7.5a2.86,2.86,0,0,0,3.12-3c0-1.69-.92-3-2.46-4.87l-5.3-6.24c-2.75-3.46-5.3-7-5.3-11.59,0-6.13,4.52-9,9.68-9,5.7,0,9.36,2.75,9.36,8.19a20.34,20.34,0,0,1-.72,4.87h-5c-.09-5.18-.6-7.76-3.52-7.76-2.52,0-3.29,1.74-3.29,3.41,0,1.83.95,3.26,2.4,5.1L114,33.26c1.66,2.09,4.81,5.9,4.81,10.51,0,5.56-3.61,9.22-10,9.22-5.3,0-9.53-2.18-9.53-8.67A15.15,15.15,0,0,1,99.93,39.9Z"/><path class="cls-1" d="M124.46,35.64V29.46c0-15.32,6.1-16.78,11-16.78,4.72,0,10.82,1.26,10.82,16.78v6.18C146.28,51,140,53,135.43,53,130.39,53,124.46,51.21,124.46,35.64ZM139,37.58v-9.7c0-7.38-.92-9.9-3.52-9.9s-3.75,2.52-3.75,9.9v9.7c0,7.39,1,9.82,3.75,9.82S139,45,139,37.58Z"/><path class="cls-1" d="M153.37,13.14h5.58l.66,4.21v0a9.28,9.28,0,0,1,8.24-4.69c4.58,0,7.21,3.26,7.21,9.68v30.2h-7.24V22.61c0-3.46-1.09-4.64-3.15-4.64a5.24,5.24,0,0,0-4.06,2.69V52.56h-7.24Z"/><path class="cls-1" d="M189.07,55.25c0,3.38,1.26,4.67,3.86,4.67,2.15,0,4.09-1.06,4.09-5.87V47.83a7.61,7.61,0,0,1-6.3,3.06c-2.66,0-8.47-.86-8.47-14.25V26.28c0-12.82,5.78-13.57,8.65-13.57A7.19,7.19,0,0,1,197.71,17l.66-3.89H204V51c0,8.79-3.29,14.34-11,14.34-5.21,0-9.45-1.55-9.45-7.76a9.11,9.11,0,0,1,.37-2.29Zm7.73-12.82V20.87c-.71-1.57-1.92-2.89-3.63-2.89-2.12,0-3.64,1.23-3.64,7.13v13c0,5.87,1.55,7.22,3.66,7.22C195.08,45.29,196.17,43.88,196.8,42.42Z"/><path class="cls-1" d="M211.33,39.9h5.1c0,5.73,1.06,7.5,4.21,7.5a2.86,2.86,0,0,0,3.12-3c0-1.69-.92-3-2.46-4.87L216,33.26c-2.75-3.46-5.3-7-5.3-11.59,0-6.13,4.52-9,9.68-9,5.7,0,9.36,2.75,9.36,8.19a20.34,20.34,0,0,1-.72,4.87h-5c-.09-5.18-.6-7.76-3.52-7.76-2.52,0-3.29,1.74-3.29,3.41,0,1.83.95,3.26,2.4,5.1l5.78,6.78c1.66,2.09,4.81,5.9,4.81,10.51,0,5.56-3.61,9.22-10,9.22-5.3,0-9.53-2.18-9.53-8.67A15.15,15.15,0,0,1,211.33,39.9Z"/><path class="cls-1" d="M250.34,35.64V29.46c0-15.32,6.1-16.78,11-16.78,4.72,0,10.82,1.26,10.82,16.78v6.18C272.15,51,265.86,53,261.3,53,256.26,53,250.34,51.21,250.34,35.64Zm14.54,1.94v-9.7c0-7.38-.92-9.9-3.52-9.9s-3.75,2.52-3.75,9.9v9.7c0,7.39,1,9.82,3.75,9.82S264.88,45,264.88,37.58Z"/><path class="cls-1" d="M280.41,18.29H277V13.14h3.41V10.31C280.41,1.74,284.16,0,289,0a12.24,12.24,0,0,1,4.81,1V6.07a11,11,0,0,0-2.69-.32c-1.89,0-3.55,1.12-3.55,4.55v2.83H293v5.15h-5.47V52.56h-7.13Z"/><path class="cls-1" d="M3.35,89h7.41v48.89H3.35Z"/><path class="cls-1" d="M18.74,89h9.68L33.11,108c1,4.18,1.49,8,2,11.36h.23c.52-3.32,1-7.18,2-11.36L42.19,89h9.47v48.89H44.73V121.77c0-9.93.46-18.61.77-22H45l-7.39,31.92H32.88L25.44,99.73h-.54c.32,3.44.77,12.11.77,22v16.17H18.74Z"/><path class="cls-1" d="M59.66,89h9.68L74,108c1,4.18,1.49,8,2,11.36h.23c.52-3.32,1-7.18,2-11.36L83.11,89h9.48v48.89H85.65V121.77c0-9.93.46-18.61.77-22h-.54L78.5,131.65H73.8L66.36,99.73h-.54c.32,3.44.77,12.11.77,22v16.17H59.66Z"/><path class="cls-1" d="M100.57,89H108v48.89h-7.41Z"/><path class="cls-1" d="M115.39,122V104.71c0-14.74,7.87-16.09,12.54-16.09,7.93,0,10.73,4.69,10.73,10.36a29.36,29.36,0,0,1-.69,5.84h-5.93V102.5c0-5.35-1.49-8-4.32-8-3.12,0-4.58,1.94-4.58,8.21v22.16c0,6.07,1.4,7.93,4.52,7.93,3.29,0,4.69-3.64,4.69-8.33V118h-3.81v-4.87h11v24.76h-4.92l-.8-4.64c-1.86,3.64-4.21,5.09-7.53,5.09S115.39,136.71,115.39,122Z"/><path class="cls-1" d="M146.71,89h8c5.52,0,14.83.69,14.83,14v1.23c0,7.42-2.2,12.08-6.33,14.14l7.84,19.55h-7.84l-6.5-18.29H154v18.29h-7.27Zm8.39,25.25c5.21,0,7-2.12,7-8.7v-3.87c0-5-1.63-7.27-7-7.27H154V114.3Z"/><path class="cls-1" d="M184.87,89h8.53l9,48.89h-7.5l-1.35-8.76h-8.93l-1.29,8.76h-7.53Zm7.87,34.55L189.3,99.24H189l-3.46,24.36Z"/><path class="cls-1" d="M208.47,89h6l11.85,32.72h.17a142.44,142.44,0,0,1-.77-14.89V89h6.64v48.89H226.3l-11.79-31.86h-.23a174.55,174.55,0,0,1,.77,17.49v14.37h-6.58Z"/><path class="cls-1" d="M246.43,94.89h-7.87V89h23.13v5.84h-7.84v43.05h-7.42Z"/><path class="cls-1" d="M267.3,122.26h5.76v2.38c0,5.27,1.2,8.16,4.81,8.16,2.81,0,4.35-1.6,4.35-4.55s-.72-4.87-3.44-8.33L271,110.72c-2.72-3.49-4.29-7-4.29-11,0-6.5,4.12-11.08,11.25-11.08,8.65,0,11.19,5.41,11.19,10.36a29.53,29.53,0,0,1-.8,5.84h-5.73V102.5c0-5.15-1.4-8-4.75-8-2.78,0-4.15,1.69-4.15,4.26a9,9,0,0,0,2.32,6.13l8.62,10.42c3.15,4.09,4.87,7.64,4.87,11.85,0,6.93-4.49,11.28-11.65,11.28-8.85,0-11.37-5.15-11.37-10.36A23.26,23.26,0,0,1,267.3,122.26Z"/><path class="cls-1" d="M2.89,167.32h7.24v9.27l-.37,6.76a9,9,0,0,1,7.67-3.84c4.58,0,7.21,3.26,7.21,9.68v30.2H17.4V189.45c0-3.46-1.09-4.64-3.15-4.64a5.34,5.34,0,0,0-4.12,2.75v31.83H2.89Z"/><path class="cls-1" d="M30.84,210.35c0-6.47,3.21-9.88,9.22-12.85,1.43-.72,3.46-1.55,4.87-2.06v-5.21c0-3.06-.23-5.41-3.29-5.41-2.06,0-4,1.4-4,5.92v1.72H32.1a16.78,16.78,0,0,1-.52-3.89c0-5.87,4.27-9,10.28-9,7.84,0,10.1,3.38,10.1,10.36v29.51H46.59L46.07,216a9.16,9.16,0,0,1-7.61,3.81C33.59,219.82,30.84,215.73,30.84,210.35Zm14.08,2.26V200.27a17.76,17.76,0,0,0-2.83,1.38,8.69,8.69,0,0,0-4.15,7.58c0,3,1.12,5,3.72,5A4.63,4.63,0,0,0,44.93,212.61Z"/><path class="cls-1" d="M56.91,180h7.21l3.81,21,.94,8.39h.23l1.09-8.39L74,180h7l-9,39.42H65.79Z"/><path class="cls-1" d="M84.89,203.25v-7.44c0-15.06,7.19-16.29,11.37-16.29,5.21,0,9.93,2.81,9.93,12.31a45,45,0,0,1-.94,9.22H92.16v4c0,6.87.92,9.19,4.21,9.19,1.77,0,3.43-1.29,3.43-5.44v-1.23h6v1.52c0,7.47-3.66,10.74-10.42,10.74S84.89,215,84.89,203.25Zm14.54-7.07c.09-.83.11-3,.11-4,0-5.21-1.23-7.33-3.63-7.33s-3.75,2.18-3.75,9v2.41Z"/><path class="cls-1" d="M125.62,210.35c0-6.47,3.21-9.88,9.22-12.85,1.43-.72,3.46-1.55,4.87-2.06v-5.21c0-3.06-.23-5.41-3.29-5.41-2.06,0-4,1.4-4,5.92v1.72h-5.52a16.77,16.77,0,0,1-.52-3.89c0-5.87,4.27-9,10.28-9,7.84,0,10.1,3.38,10.1,10.36v29.51h-5.38l-.52-3.38a9.16,9.16,0,0,1-7.61,3.81C128.37,219.82,125.62,215.73,125.62,210.35Zm14.08,2.26V200.27a17.76,17.76,0,0,0-2.83,1.38,8.69,8.69,0,0,0-4.15,7.58c0,3,1.12,5,3.72,5A4.63,4.63,0,0,0,139.7,212.61Z"/><path class="cls-1" d="M154.68,167.32h7.24v52.07h-7.24Z"/><path class="cls-1" d="M167.86,180h6.9l2.83,21.35.69,8h.23l.86-8L183.15,180h6.1l3.89,21.35,1.06,8h.23l.49-8L197.41,180h6.76l-6.38,39.42h-6.67L187,197.47l-.92-6h-.23l-.83,6-3.72,21.93h-7Z"/><path class="cls-1" d="M208.1,210.35c0-6.47,3.21-9.88,9.22-12.85,1.43-.72,3.46-1.55,4.87-2.06v-5.21c0-3.06-.23-5.41-3.29-5.41-2.06,0-4,1.4-4,5.92v1.72h-5.52a16.78,16.78,0,0,1-.52-3.89c0-5.87,4.27-9,10.28-9,7.84,0,10.1,3.38,10.1,10.36v29.51h-5.38l-.52-3.38a9.16,9.16,0,0,1-7.61,3.81C210.85,219.82,208.1,215.73,208.1,210.35Zm14.08,2.26V200.27a17.76,17.76,0,0,0-2.83,1.38,8.69,8.69,0,0,0-4.15,7.58c0,3,1.12,5,3.72,5A4.63,4.63,0,0,0,222.18,212.61Z"/><path class="cls-1" d="M243.5,219.62,234.17,180h7.36l4.15,21.81,1.2,7.53h.23l.83-7.53L251.29,180h7.13l-8.3,40.88c-1.46,7.56-4.32,11.28-10.45,11.28a11,11,0,0,1-3.81-.72l0-4.44C240.26,227.61,243.27,225.2,243.5,219.62Z"/><path class="cls-1" d="M263.57,206.74h5.1c0,5.73,1.06,7.5,4.21,7.5a2.86,2.86,0,0,0,3.12-3c0-1.69-.92-3-2.46-4.87l-5.3-6.24c-2.75-3.46-5.3-7-5.3-11.59,0-6.13,4.52-9,9.68-9,5.7,0,9.36,2.75,9.36,8.19a20.34,20.34,0,0,1-.72,4.87h-5c-.09-5.18-.6-7.76-3.52-7.76-2.52,0-3.29,1.74-3.29,3.41,0,1.83.95,3.26,2.4,5.1l5.78,6.78c1.66,2.09,4.81,5.9,4.81,10.51,0,5.56-3.61,9.22-10,9.22-5.3,0-9.53-2.18-9.53-8.67A15.15,15.15,0,0,1,263.57,206.74Z"/><path class="cls-1" d="M304.44,185.13h-3.06V180h3.69l1.46-10.22h5.15V180H318v5.15h-6.3V210.2c0,3.44,1.43,4,3.12,4a6.21,6.21,0,0,0,3.43-1v4a7.44,7.44,0,0,1-6,2.58c-4,0-7.79-1.72-7.79-10.28Z"/><path class="cls-1" d="M323,202.48v-6.18c0-15.32,6.1-16.78,11-16.78,4.72,0,10.82,1.26,10.82,16.78v6.18c0,15.32-6.3,17.35-10.85,17.35C329,219.82,323,218,323,202.48Zm14.54,1.94v-9.7c0-7.38-.92-9.9-3.52-9.9s-3.75,2.52-3.75,9.9v9.7c0,7.39,1,9.82,3.75,9.82S337.58,211.81,337.58,204.42Z"/><path class="cls-1" d="M352,167.32h7.24v52.07H352Z"/><path class="cls-1" d="M366.63,205.63V193.11c0-13.25,6.33-13.57,8.65-13.57a7.47,7.47,0,0,1,6.1,3.29l0,0-.23-5V167.32h7.21v52.07h-5.64l-.63-3.66a7.82,7.82,0,0,1-7,4.12C372.44,219.85,366.63,219,366.63,205.63Zm14.54,5.78V187.7c-.71-1.57-1.92-2.89-3.63-2.89-2.12,0-3.64,1.23-3.64,7.13v15.12c0,5.87,1.55,7.18,3.66,7.18C379.46,214.24,380.55,212.87,381.18,211.41Z"/><path class="cls-1" d="M3.72,266.58H.66v-5.15H4.35l1.46-10.22H11v10.22h6.3v5.15H11v25.08c0,3.43,1.43,4,3.12,4a6.21,6.21,0,0,0,3.43-1v4a7.44,7.44,0,0,1-6,2.58c-4,0-7.79-1.72-7.79-10.27Z"/><path class="cls-1" d="M23.4,248.77h7.24V258l-.37,6.75A9.05,9.05,0,0,1,37.95,261c4.58,0,7.21,3.26,7.21,9.68v30.2H37.92V270.9c0-3.46-1.09-4.64-3.15-4.64A5.33,5.33,0,0,0,30.65,269v31.83H23.4Z"/><path class="cls-1" d="M52.24,284.7v-7.44C52.24,262.2,59.42,261,63.6,261c5.21,0,9.93,2.81,9.93,12.31a45,45,0,0,1-.94,9.22H59.51v4c0,6.87.92,9.19,4.21,9.19,1.77,0,3.43-1.29,3.43-5.44V289h6v1.52c0,7.47-3.66,10.73-10.42,10.73S52.24,296.43,52.24,284.7Zm14.54-7.07c.09-.83.11-3,.11-4,0-5.21-1.23-7.33-3.63-7.33s-3.75,2.18-3.75,9v2.4Z"/><path class="cls-1" d="M94.31,288.19h5.1c0,5.72,1.06,7.5,4.21,7.5a2.86,2.86,0,0,0,3.12-3c0-1.69-.92-3-2.46-4.87L99,281.55c-2.75-3.46-5.3-7-5.3-11.59,0-6.12,4.52-9,9.68-9,5.7,0,9.36,2.75,9.36,8.19A20.38,20.38,0,0,1,112,274h-5c-.09-5.18-.6-7.76-3.52-7.76-2.52,0-3.29,1.75-3.29,3.41,0,1.83.95,3.26,2.4,5.09l5.78,6.79c1.66,2.09,4.81,5.9,4.81,10.51,0,5.55-3.61,9.22-10,9.22-5.3,0-9.53-2.18-9.53-8.67A15.13,15.13,0,0,1,94.31,288.19Z"/><path class="cls-1" d="M121.23,266.58h-3.06v-5.15h3.69l1.46-10.22h5.15v10.22h6.3v5.15h-6.3v25.08c0,3.43,1.43,4,3.12,4a6.21,6.21,0,0,0,3.43-1v4a7.44,7.44,0,0,1-6,2.58c-4,0-7.79-1.72-7.79-10.27Z"/><path class="cls-1" d="M139.82,283.93v-6.18c0-15.32,6.1-16.78,11-16.78,4.72,0,10.82,1.26,10.82,16.78v6.18c0,15.32-6.3,17.35-10.85,17.35C145.75,301.27,139.82,299.5,139.82,283.93Zm14.54,1.95v-9.7c0-7.39-.92-9.91-3.52-9.91s-3.75,2.52-3.75,9.91v9.7c0,7.38,1,9.82,3.75,9.82S154.37,293.26,154.37,285.87Z"/><path class="cls-1" d="M168.73,261.43H174l.63,4c1.57-3,3.78-4.47,6-4.47,4.15,0,6.1,2.58,6.1,7.67a20.48,20.48,0,0,1-1,5.36h-5v-3.66c0-3.18-.86-4.07-1.92-4.07a3.3,3.3,0,0,0-2.8,2.12v32.46h-7.24Z"/><path class="cls-1" d="M199.83,301.07l-9.33-39.65h7.36L202,283.24l1.2,7.53h.23l.83-7.53,3.35-21.81h7.13l-8.3,40.88c-1.46,7.56-4.32,11.28-10.45,11.28a11,11,0,0,1-3.81-.71l0-4.44C196.6,309.06,199.6,306.66,199.83,301.07Z"/><path class="cls-1" d="M1.86,365.38v-6.18c0-15.32,6.1-16.78,11-16.78,4.72,0,10.82,1.26,10.82,16.78v6.18c0,15.32-6.3,17.35-10.85,17.35C7.79,382.72,1.86,381,1.86,365.38Zm14.54,1.95v-9.7c0-7.39-.92-9.91-3.52-9.91s-3.75,2.52-3.75,9.91v9.7c0,7.38,1,9.82,3.75,9.82S16.4,374.71,16.4,367.32Z"/><path class="cls-1" d="M31.94,348H28.53v-5.15h3.41V340c0-8.56,3.75-10.31,8.56-10.31a12.24,12.24,0,0,1,4.81,1v5.1a10.92,10.92,0,0,0-2.69-.32c-1.89,0-3.55,1.11-3.55,4.55v2.83h5.47V348H39.06V382.3H31.94Z"/><path class="cls-1" d="M63,365.38v-6.18c0-15.32,6.1-16.78,11-16.78,4.72,0,10.82,1.26,10.82,16.78v6.18c0,15.32-6.3,17.35-10.85,17.35C69,382.72,63,381,63,365.38Zm14.54,1.95v-9.7c0-7.39-.92-9.91-3.52-9.91s-3.75,2.52-3.75,9.91v9.7c0,7.38,1,9.82,3.75,9.82S77.59,374.71,77.59,367.32Z"/><path class="cls-1" d="M91.9,342.88h7.24v29.63c0,3.46,1.09,4.64,3.15,4.64a5.1,5.1,0,0,0,4-2.32V342.88h7.24V382.3H108l-.72-4.21h0a9.14,9.14,0,0,1-8.13,4.67c-4.58,0-7.21-3.23-7.21-9.68Z"/><path class="cls-1" d="M121.48,342.88h5.3l.63,4c1.57-3,3.78-4.47,6-4.47,4.15,0,6.1,2.58,6.1,7.67a20.48,20.48,0,0,1-1,5.36h-5v-3.66c0-3.18-.86-4.07-1.92-4.07a3.3,3.3,0,0,0-2.8,2.12V382.3h-7.24Z"/><path class="cls-1" d="M159.52,342.88h5.58l.66,4.21v0a9.28,9.28,0,0,1,8.24-4.7c4.58,0,7.21,3.26,7.21,9.68v30.2H174V352.35c0-3.46-1.09-4.64-3.15-4.64a5.24,5.24,0,0,0-4.06,2.69V382.3h-7.24Z"/><path class="cls-1" d="M187.42,373.25c0-6.47,3.21-9.88,9.22-12.85,1.43-.71,3.46-1.55,4.87-2.06v-5.21c0-3.06-.23-5.41-3.29-5.41-2.06,0-4,1.4-4,5.93v1.72h-5.52a16.77,16.77,0,0,1-.52-3.89c0-5.87,4.27-9,10.28-9,7.84,0,10.1,3.38,10.1,10.36V382.3h-5.38l-.52-3.38a9.15,9.15,0,0,1-7.61,3.81C190.16,382.72,187.42,378.63,187.42,373.25Zm14.08,2.26V363.17a17.72,17.72,0,0,0-2.83,1.37,8.7,8.7,0,0,0-4.15,7.59c0,3,1.12,5,3.72,5A4.63,4.63,0,0,0,201.5,375.51Z"/><path class="cls-1" d="M217.61,348h-3.06v-5.15h3.69l1.46-10.22h5.15v10.22h6.3V348h-6.3v25.08c0,3.43,1.43,4,3.12,4a6.21,6.21,0,0,0,3.43-1v4a7.44,7.44,0,0,1-6,2.58c-4,0-7.79-1.72-7.79-10.27Z"/><path class="cls-1" d="M236.77,332.51c0-3.41,1.63-4.58,4.35-4.58s4.38,1.4,4.38,4.58c0,3-1.57,4.72-4.41,4.72C238.43,337.24,236.77,335.58,236.77,332.51Zm.57,10.36h7.24V382.3h-7.24Z"/><path class="cls-1" d="M251.54,365.38v-6.18c0-15.32,6.1-16.78,11-16.78,4.72,0,10.82,1.26,10.82,16.78v6.18c0,15.32-6.3,17.35-10.85,17.35C257.46,382.72,251.54,381,251.54,365.38Zm14.54,1.95v-9.7c0-7.39-.92-9.91-3.52-9.91s-3.75,2.52-3.75,9.91v9.7c0,7.38,1,9.82,3.75,9.82S266.08,374.71,266.08,367.32Z"/><path class="cls-1" d="M280.44,342.88H286l.66,4.21v0a9.28,9.28,0,0,1,8.24-4.7c4.58,0,7.21,3.26,7.21,9.68v30.2h-7.24V352.35c0-3.46-1.09-4.64-3.15-4.64a5.24,5.24,0,0,0-4.06,2.69V382.3h-7.24Z"/><path class="cls-1" d="M313.86,371.5c2.83,0,4.49,1.86,4.49,5.67,0,3.49-1.69,5.52-4.52,5.52s-4.44-1.92-4.44-5.52C309.4,373.14,311.12,371.5,313.86,371.5Z"/></g></g></svg>
