<svg xmlns="http://www.w3.org/2000/svg" viewBox="0 0 289.94 221.8">
  <defs>
    <style>.cls-1{fill:#ffffff;}</style>
  </defs>
  <title>Asset 2</title>
  <g id="Layer_2" data-name="Layer 2">
  <g id="Layer_1-2" data-name="Layer 1">
  <path class="cls-1" d="M213.49,214.22l-.3.21c-5.25,3.61-13.14,7.28-35.5,7.28L.94,221.8v-6.86l176.76-.1c19.77,0,26.81-2.83,31.2-5.79l.16-.11s.63.83,2.16,2.71A29.46,29.46,0,0,0,213.49,214.22Z"/><path class="cls-1" d="M245.32,168.24l44.62.1v-9.2l-44.62,0c-8.64,0-18.44,6.61-25.59,13.42l-.62.59c-1.31-.93-2.53-1.93-3.78-3l-1.83-1.49c-6.8-5.48-12.17-9.81-34.94-9.81L.94,159v6.86l177.62-.1c20.35,0,24.45,3.3,30.64,8.29l1.78,1.45c6.42,5.28,13.07,10.73,34.71,10.73l44.25,0v-6.86l-44.25,0c-7.91,0-13.41-.73-17.6-1.92l.47-.42C232.47,173.54,239.93,168.24,245.32,168.24Z"/><path class="cls-1" d="M246.24,201.84l43.7,0V195l-43.7,0a51.24,51.24,0,0,0-20.09,3.9,31.76,31.76,0,0,0-4.35,2.44,54.45,54.45,0,0,1-3.21-4.51l-.88-1.34a28.33,28.33,0,0,1-4.09,3.91,33.45,33.45,0,0,1-4.86,3.28c.08.11.14.2.3.44,4.81,7.39,12.18,18.49,36.6,18.49l44.23,0V210.22l-44.23,0c-8.66,0-14.2-1.54-18.12-3.85a16.29,16.29,0,0,1,3.57-2A41.22,41.22,0,0,1,246.24,201.84Z"/><path class="cls-1" d="M216,184.11c-1.91-1.21-3.64-2.6-3.64-2.6a11.51,11.51,0,0,1-1.09,1.41l-1.16,1.25c-1.16-.9-3.47-2.67-3.47-2.67-5.85-4.44-14.53-6.26-28.06-6.26l-177.62.1v11.43l177.62-.1A65.69,65.69,0,0,1,196.61,189a11.75,11.75,0,0,1,4.47,2.67c-4.86,2.7-11.73,4.68-22.53,4.68l-177.62.1v9.14l177.62-.1c25.45,0,34-10,39.75-16.74.8-.93,1.2-1.54,2-2.57A25.5,25.5,0,0,1,216,184.11Z"/><path class="cls-1" d="M1.24,131.37H8.66v3.06c0,6.79,1.55,10.51,6.2,10.51,3.62,0,5.61-2.07,5.61-5.87s-.92-6.27-4.43-10.74l-10-11.84c-3.5-4.5-5.53-9-5.53-14.21C.54,93.92,5.85,88,15,88c11.14,0,14.43,7,14.43,13.36a38.05,38.05,0,0,1-1,7.53H21.06v-3c0-6.64-1.81-10.37-6.12-10.37-3.58,0-5.35,2.18-5.35,5.5,0,3.58,1.14,5.46,3,7.9l11.11,13.43c4.06,5.28,6.27,9.85,6.27,15.28,0,8.93-5.79,14.54-15,14.54-11.4,0-14.65-6.64-14.65-13.36A29.93,29.93,0,0,1,1.24,131.37Z"/><path class="cls-1" d="M35.35,131.08V108.76C35.35,89.76,45.13,88,51,88c5.68,0,15.53,1.44,15.53,20.74v22.32c0,18.71-10,21.07-15.53,21.07C44.91,152.15,35.35,150,35.35,131.08Zm21.25,3.73V106.14c0-8.08-1.81-10.59-5.57-10.59s-5.68,2.51-5.68,10.59v28.67c0,7.82,1.81,10.15,5.68,10.15S56.6,142.63,56.6,134.81Z"/><path class="cls-1" d="M72.73,88.58h7.75l15.28,42.17H96a183.61,183.61,0,0,1-1-19.19v-23h8.56v63H95.72l-15.2-41.07h-.29a224.89,224.89,0,0,1,1,22.54v18.52H72.73Z"/><path class="cls-1" d="M110.3,131.08V108.76c0-19,10.15-20.74,16.16-20.74,10.22,0,13.84,6.05,13.84,13.36a37.72,37.72,0,0,1-.88,7.53h-7.64v-3c0-6.9-1.92-10.37-5.57-10.37-4,0-5.9,2.51-5.9,10.59v28.56c0,7.82,1.81,10.22,5.83,10.22,4.24,0,6.05-4.69,6.05-10.74V126h-4.91v-6.27h14.2v31.92h-6.35l-1-6c-2.4,4.69-5.42,6.57-9.7,6.57C119.93,152.18,110.3,150,110.3,131.08Z"/><path class="cls-1" d="M147.65,88.58h9.67c8.56,0,19.63,1.07,19.63,14.28v3.06c0,6.71-4.17,11.36-8.41,12.4v.3c6.24,1.14,9.45,6.16,9.45,13.65v3.21c0,13.72-9.56,16.12-20.29,16.12h-10Zm11.22,27c5.13,0,8.56-2.32,8.56-8.23v-2.58c0-5.87-2.25-9.19-8.56-9.19H157v20Zm.88,29.41c5.09,0,8.52-2.66,8.52-8.56v-4.91c0-5.9-2.25-9.19-8.52-9.19H157V145Z"/><path class="cls-1" d="M183,131.08V108.76c0-19,9.78-20.74,15.68-20.74,5.68,0,15.53,1.44,15.53,20.74v22.32c0,18.71-10,21.07-15.53,21.07C192.52,152.15,183,150,183,131.08Zm21.25,3.73V106.14c0-8.08-1.81-10.59-5.57-10.59S193,98.06,193,106.14v28.67c0,7.82,1.81,10.15,5.68,10.15S204.21,142.63,204.21,134.81Z"/><path class="cls-1" d="M220.27,131.08V108.76C220.27,89.76,230,88,236,88c5.68,0,15.53,1.44,15.53,20.74v22.32c0,18.71-10,21.07-15.53,21.07C229.83,152.15,220.27,150,220.27,131.08Zm21.25,3.73V106.14c0-8.08-1.81-10.59-5.57-10.59s-5.68,2.51-5.68,10.59v28.67c0,7.82,1.81,10.15,5.68,10.15S241.52,142.63,241.52,134.81Z"/><path class="cls-1" d="M258.09,88.58h9.56V116.1h.3l10.92-27.52h9.52L276.2,118.13l13.54,33.46H279.52l-11.58-30h-.3v30h-9.56Z"/><path class="cls-1" d="M27.33,73.41H12L9.52,79.68H0L15.23,44.21h9.52L39.63,79.68H29.76ZM24.6,66.32,19.74,53.67l-5,12.65Z"/><path class="cls-1" d="M53.19,44.21l9.41,20.7L72,44.21H82.14V79.68h-8.2l-.05-22.47L65.64,76.14H59.56L51.31,57.21V79.68H43.06V44.21Z"/><path class="cls-1" d="M117.31,44.21v7.39H98.58v6.63h16.9v7.34l-16.9.05v6.68h19.23v7.39H89.32V44.21Z"/><path class="cls-1" d="M146.48,79.68l-5.16-9.82h-6.88v9.82h-9.26V44.21h15.94c9.41,0,14.78,4.55,14.78,12.45,0,5.37-2.23,9.31-6.33,11.44L157,79.68Zm-12-17.21h6.73c3.75,0,5.92-1.92,5.92-5.52s-2.18-5.36-5.92-5.36h-6.73Z"/><path class="cls-1" d="M171.25,44.21V79.68H162V44.21Z"/><path class="cls-1" d="M196.15,51.8a9.6,9.6,0,0,0-9.62,10c0,5.72,4.15,10.07,9.62,10.07A13.15,13.15,0,0,0,205,67.69l5.42,5.82a21.21,21.21,0,0,1-14.73,6.58C185,80.09,177,72.29,177,61.87,177,51.64,185.16,44,196,44A20.36,20.36,0,0,1,210.32,50L205,56.45C202.62,53.62,199.23,51.8,196.15,51.8Z"/><path class="cls-1" d="M238.7,73.41H223.37l-2.48,6.28h-9.52l15.23-35.48h9.52L251,79.68h-9.87ZM236,66.32l-4.86-12.65-5,12.65Z"/><path class="cls-1" d="M263.5,44.21l16.09,21.36V44.21h8.6V79.68h-8.1L264,58.43V79.68h-8.65V44.21Z"/><path class="cls-1" d="M29,10.7V16.2H21.37V36.26H14.7V16.2H7.11V10.7Z"/><path class="cls-1" d="M39.09,10.7V21.13H49.42V10.7h6.67V36.26H49.42V26.45H39.09v9.81H32.42V10.7Z"/><path class="cls-1" d="M80.49,10.7V16H67V20.8H79.17v5.29L67,26.12v4.81H80.85v5.32H60.32V10.7Z"/><path class="cls-1" d="M97,0l16.32,21.66V0H122V36h-8.21L97.5,14.42V36H88.72V0Z"/><path class="cls-1" d="M153.68,0V7.49h-19v6.72h17.14v7.44l-17.14.05v6.78h19.51V36h-28.9V0Z"/><path class="cls-1" d="M166.35,0l6.83,26L180,0h9.19L196,26l6.78-26h9.65L200.54,36h-9.7L184.37,11.7,177.69,36H168L156.24,0Z"/></g></g>
</svg>
