<svg xmlns="http://www.w3.org/2000/svg" viewBox="0 0 39.47 60.73"><defs><style>.cls-1{fill:none;}.cls-2{fill:#cc892a;}</style></defs><title>Asset 1</title><g id="Layer_2" data-name="Layer 2"><g id="Layer_1-2" data-name="Layer 1"><path class="cls-1" d="M32.73,16.93l-.47.42a46.16,46.16,0,0,0,7.21,1.38V11.88A51.21,51.21,0,0,0,32.73,16.93Z"/><path class="cls-1" d="M31.71,46.27a25.57,25.57,0,0,0,7.76,2.89V43a41.2,41.2,0,0,0-4.19,1.29A16.29,16.29,0,0,0,31.71,46.27Z"/><path class="cls-1" d="M.78,28.9,0,28.7v5.17a31.21,31.21,0,0,0,5.25-2.3A11.75,11.75,0,0,0,.78,28.9Z"/><path class="cls-2" d="M17.66,54.12a29.45,29.45,0,0,1-2.27-2.57c-1.53-1.88-2.16-2.71-2.16-2.71l-.16.11C10.42,50.73,6.8,52.47,0,53.57v6.93c9.24-1.36,13.88-3.78,17.36-6.17Z"/><path class="cls-2" d="M32.73,16.93a51.21,51.21,0,0,1,6.74-5V1.49a59.05,59.05,0,0,0-15.57,11l-.62.59c-1.31-.93-2.53-1.93-3.78-3L17.67,8.56C13.07,4.85,9.12,1.67,0,0V7c6.53,1.41,9.55,3.85,13.37,6.92l1.78,1.45c5.25,4.32,10.67,8.75,24.32,10.22V18.73a46.16,46.16,0,0,1-7.21-1.38Z"/><path class="cls-2" d="M26,41.24a54.44,54.44,0,0,1-3.21-4.51l-.88-1.34a28.33,28.33,0,0,1-4.09,3.91,33.45,33.45,0,0,1-4.86,3.28l.3.44c4,6.22,9.92,15.07,26.24,17.71V49.16a25.57,25.57,0,0,1-7.76-2.89,16.29,16.29,0,0,1,3.57-2A41.2,41.2,0,0,1,39.47,43V36a51.22,51.22,0,0,0-9.15,2.81A31.77,31.77,0,0,0,26,41.24Z"/><path class="cls-2" d="M22.47,28.65c.8-.93,1.2-1.54,2-2.57A25.5,25.5,0,0,1,20.17,24c-1.91-1.21-3.64-2.6-3.64-2.6a11.5,11.5,0,0,1-1.09,1.41l-1.16,1.25L10.81,21.4A27.7,27.7,0,0,0,0,16.68v12l.78.2a11.75,11.75,0,0,1,4.47,2.67A31.21,31.21,0,0,1,0,33.86v9.57C12.6,40.19,18.28,33.55,22.47,28.65Z"/></g></g></svg>
