<svg xmlns="http://www.w3.org/2000/svg" viewBox="0 0 66.78 306.57"><defs><style>.cls-1{fill:#edece8;}</style></defs><title>Asset 6</title><g id="Layer_2" data-name="Layer 2"><g id="Layer_1-2" data-name="Layer 1"><path class="cls-1" d="M8,225.48l-.22-.32C4,219.59.1,211.22.1,187.5L0,0H7.28l.11,187.5c0,21,3,28.44,6.14,33.1l.12.17s-.88.67-2.87,2.29A31.25,31.25,0,0,0,8,225.48Z"/><path class="cls-1" d="M56.81,259.24l-.11,47.33h9.76V259.24c0-9.17-7-19.56-14.24-27.15l-.63-.66c1-1.39,2-2.68,3.18-4l1.58-1.94c5.81-7.21,10.41-12.91,10.41-37.06L66.62,0H59.34l.11,188.41c0,21.59-3.5,25.94-8.79,32.5l-1.54,1.89c-5.6,6.81-11.38,13.86-11.38,36.82v46.94H45V259.63c0-8.39.77-14.22,2-18.67l.45.5C51.19,245.61,56.81,253.52,56.81,259.24Z"/><path class="cls-1" d="M21.17,260.22v46.36h7.26V260.22a54.35,54.35,0,0,0-4.14-21.31,33.69,33.69,0,0,0-2.59-4.61,57.76,57.76,0,0,1,4.78-3.41l1.42-.93a30.05,30.05,0,0,1-4.15-4.34,35.48,35.48,0,0,1-3.48-5.16l-.47.32C12,225.88.2,233.7.2,259.6v46.92H12.28V259.6c0-9.19,1.63-15.06,4.08-19.22a17.28,17.28,0,0,1,2.12,3.79A43.73,43.73,0,0,1,21.17,260.22Z"/><path class="cls-1" d="M40,228.14c1.28-2,2.76-3.86,2.76-3.86a12.21,12.21,0,0,1-1.5-1.16l-1.33-1.23c1-1.23,2.83-3.68,2.83-3.68,4.71-6.21,6.64-15.41,6.64-29.77L49.28,0H37.16l.11,188.41a69.68,69.68,0,0,1-2.47,19.13A12.46,12.46,0,0,1,32,212.31c-2.86-5.16-5-12.44-5-23.9L26.89,0H17.2l.11,188.41c0,27,10.61,36.07,17.76,42.17,1,.85,1.63,1.27,2.73,2.12A27.05,27.05,0,0,1,40,228.14Z"/></g></g></svg>