<svg xmlns="http://www.w3.org/2000/svg" viewBox="0 0 274.58 255.2"><defs><style>.cls-1{fill:#414042;}.cls-2{opacity:0.23;}.cls-3{opacity:0.25;}.cls-4,.cls-5,.cls-6,.cls-7,.cls-8,.cls-9{fill:none;stroke:#231f20;stroke-miterlimit:10;}.cls-4,.cls-5,.cls-6{stroke-width:0.71px;}.cls-5{stroke-dasharray:2.01 2.01;}.cls-6{stroke-dasharray:1.99 1.99;}.cls-7,.cls-8,.cls-9{stroke-width:0.5px;}.cls-8{stroke-dasharray:1.99 1.99;}.cls-9{stroke-dasharray:2.02 2.02;}</style></defs><title>Asset 5</title><g id="Layer_2" data-name="Layer 2"><g id="Layer_1-2" data-name="Layer 1"><g id="Layer_2-2" data-name="Layer 2"><g id="Layer_1-2-2" data-name="Layer 1-2"><path class="cls-1" d="M187.31,202.93l-.22.15c-3.83,2.64-9.59,5.31-25.92,5.31l-129,.07v-5l129-.07c14.43,0,19.57-2.07,22.78-4.23l.12-.08s.46.61,1.58,2A21.51,21.51,0,0,0,187.31,202.93Z"/><path class="cls-1" d="M210.55,169.37l32.57.07v-6.72H210.55c-6.31,0-13.46,4.83-18.68,9.8l-.45.43c-1-.68-1.85-1.41-2.76-2.19l-1.34-1.09c-5-4-8.88-7.16-25.51-7.16l-129.67.11v5l129.67-.07c14.86,0,17.85,2.41,22.37,6.05l1.3,1.06c4.69,3.85,9.54,7.83,25.34,7.83h32.3v-5h-32.3a47.21,47.21,0,0,1-12.85-1.4l.34-.31C201.17,173.24,206.61,169.37,210.55,169.37Z"/><path class="cls-1" d="M211.22,193.9h31.9v-5h-31.9a37.41,37.41,0,0,0-14.67,2.85,23.19,23.19,0,0,0-3.18,1.78,39.75,39.75,0,0,1-2.34-3.29l-.64-1a20.68,20.68,0,0,1-3,2.85,24.42,24.42,0,0,1-3.55,2.39l.22.32c3.51,5.39,8.89,13.5,26.72,13.5h32.29V200H210.8c-6.32,0-10.37-1.12-13.23-2.81a11.89,11.89,0,0,1,2.61-1.46A30.09,30.09,0,0,1,211.22,193.9Z"/><path class="cls-1" d="M189.14,181c-1.39-.88-2.66-1.9-2.66-1.9a8.4,8.4,0,0,1-.8,1l-.85.91L182.31,179c-4.27-3.24-10.61-4.57-20.48-4.57l-129.67.07v8.34l129.67-.07a48,48,0,0,1,13.16,1.7,8.58,8.58,0,0,1,3.26,1.95c-3.55,2-8.56,3.42-16.45,3.42L32.14,190v6.67l129.67-.07c18.58,0,24.82-7.3,29-12.22.58-.68.88-1.12,1.46-1.88A18.62,18.62,0,0,1,189.14,181Z"/><path class="cls-1" d="M32.36,142.45h5.42v2.23c0,5,1.13,7.67,4.53,7.67,2.64,0,4.1-1.51,4.1-4.29s-.67-4.58-3.23-7.84l-7.3-8.64c-2.56-3.29-4-6.57-4-10.37,0-6.1,3.9-10.42,10.58-10.42,8.13,0,10.53,5.11,10.53,9.75a27.78,27.78,0,0,1-.73,5.5H46.83v-2.19c0-4.85-1.32-7.57-4.47-7.57-2.61,0-3.91,1.59-3.91,4a8.39,8.39,0,0,0,2.19,5.77l8.11,9.8c3,3.85,4.58,7.19,4.58,11.15,0,6.52-4.23,10.61-11,10.61-8.32,0-10.69-4.85-10.69-9.75A21.85,21.85,0,0,1,32.36,142.45Z"/><path class="cls-1" d="M57.26,142.24V125.95c0-13.87,7.14-15.16,11.42-15.16S80,111.84,80,125.93v16.29c0,13.66-7.3,15.38-11.34,15.38C64.24,157.62,57.26,156.05,57.26,142.24ZM72.78,145V124c0-5.9-1.32-7.73-4.07-7.73s-4.15,1.83-4.15,7.73V145c0,5.71,1.32,7.41,4.15,7.41S72.78,150.67,72.78,145Z"/><path class="cls-1" d="M84.55,111.21h5.66L101.37,142h.18a134,134,0,0,1-.73-14V111.2h6.25v46h-5.72l-11.1-30H90a164.17,164.17,0,0,1,.73,16.45v13.52H84.55Z"/><path class="cls-1" d="M112,142.24V125.95c0-13.87,7.41-15.14,11.8-15.14,7.46,0,10.1,4.42,10.1,9.75a27.54,27.54,0,0,1-.64,5.5h-5.58v-2.19c0-5-1.4-7.57-4.07-7.57-2.92,0-4.31,1.83-4.31,7.73v20.85c0,5.71,1.32,7.46,4.26,7.46,3.1,0,4.42-3.42,4.42-7.84v-6h-3.58V134h10.37v23.3h-4.64l-.73-4.38c-1.75,3.42-4,4.8-7.08,4.8C119,157.64,112,156.05,112,142.24Z"/><path class="cls-1" d="M139.25,111.21h7.06c6.25,0,14.33.78,14.33,10.42v2.23c0,4.9-3,8.29-6.14,9.05v.22c4.56.83,6.9,4.5,6.9,10v2.34c0,10-7,11.77-14.81,11.77h-7.3Zm8.19,19.71c3.75,0,6.25-1.69,6.25-6V123c0-4.29-1.64-6.71-6.25-6.71h-1.37v14.6Zm.64,21.47c3.72,0,6.22-1.94,6.22-6.25v-3.58c0-4.31-1.64-6.71-6.22-6.71h-2V152.4Z"/><path class="cls-1" d="M165.05,142.24V125.95c0-13.87,7.14-15.14,11.45-15.14,4.15,0,11.34,1.05,11.34,15.14v16.29c0,13.66-7.3,15.38-11.34,15.38C172,157.62,165.05,156.05,165.05,142.24ZM180.57,145V124c0-5.9-1.32-7.73-4.07-7.73s-4.15,1.83-4.15,7.73V145c0,5.71,1.32,7.41,4.15,7.41s4-1.7,4-7.41Z"/><path class="cls-1" d="M192.26,142.24V125.95c0-13.87,7.1-15.16,11.48-15.16,4.15,0,11.34,1.05,11.34,15.14v16.29c0,13.66-7.3,15.38-11.34,15.38C199.24,157.62,192.26,156.05,192.26,142.24ZM207.77,145V124c0-5.9-1.32-7.73-4.07-7.73s-4.15,1.83-4.15,7.73V145c0,5.71,1.32,7.41,4.15,7.41S207.77,150.67,207.77,145Z"/><path class="cls-1" d="M219.87,111.21h7V131.3h.22l8-20.09H242l-8.9,21.57L243,157.21h-7.46l-8.45-21.9h-.22v21.9h-7Z"/><path class="cls-1" d="M50.34,100.09H39l-1.83,4.63h-7L41.42,78.54h7l11,26.17H52.14Zm-2-5.23-3.59-9.33-3.69,9.33Z"/><path class="cls-1" d="M69.43,78.54l6.94,15.28,6.94-15.28h7.48v26.17H84.74l0-16.58-6.09,14H74.13L68,88.13v16.58H62V78.54Z"/><path class="cls-1" d="M116.74,78.54V84H102.92v4.89h12.47V94.3l-12.47,0v4.93h14.19v5.45h-21V78.54Z"/><path class="cls-1" d="M138.27,104.71l-3.81-7.25h-5.08v7.25h-6.83V78.54h11.76c6.94,0,10.91,3.36,10.91,9.19,0,4-1.65,6.87-4.67,8.44l5.48,8.55ZM129.41,92h5c2.77,0,4.37-1.42,4.37-4.07s-1.61-4-4.37-4h-5Z"/><path class="cls-1" d="M156.55,78.54v26.17h-6.83V78.54Z"/><path class="cls-1" d="M174.92,84.14a7.08,7.08,0,0,0-7.11,7.06q0,.16,0,.32a7.13,7.13,0,0,0,7.1,7.43,9.7,9.7,0,0,0,6.53-3.08l4,4.29A15.65,15.65,0,0,1,174.58,105c-7.89,0-13.79-5.76-13.79-13.45s6-13.19,14-13.19a15,15,0,0,1,10.57,4.43l-3.93,4.76A9.05,9.05,0,0,0,174.92,84.14Z"/><path class="cls-1" d="M206.32,100.09H195l-1.83,4.63h-7l11.24-26.18h7l11,26.17h-7.28Zm-2-5.23-3.59-9.33-3.69,9.33Z"/><path class="cls-1" d="M224.62,78.54,236.5,94.3V78.54h6.35v26.17h-6L225,89v15.68h-6.38V78.54Z"/><path class="cls-1" d="M52.63,54.36v4H47.06V73H42.19V58.37H36.65v-4Z"/><path class="cls-1" d="M60,54.36V62h7.54V54.36h4.87V73H67.54V65.86H60V73H55.13V54.36Z"/><path class="cls-1" d="M90.22,54.36v3.87H80.37v3.5h8.88v3.86l-8.88,0v3.51H90.48V73h-15V54.36Z"/><path class="cls-1" d="M102.27,46.55l11.91,15.81V46.55h6.34V72.83h-6L102.64,57.07V72.83H96.23V46.55Z"/><path class="cls-1" d="M143.65,46.55V52H129.78v4.91h12.51v5.43l-12.51,0v4.95H144v5.49h-21.1V46.55Z"/><path class="cls-1" d="M152.9,46.55l5,19,5-19h6.71l5,19,4.95-19h7l-8.68,26.28h-7.08l-4.72-17.74-4.88,17.74H154.1l-8.59-26.28Z"/></g></g><g class="cls-2"><path class="cls-1" d="M32.14.36h9.14l4.44,17.88c.95,3.95,1.41,7.6,1.89,10.74h.22c.49-3.14.95-6.79,1.89-10.74L54.29.36h9V46.55H56.7V31.27c0-9.39.43-17.58.73-20.82h-.51l-7,30.15H45.5l-7-30.15H38c.3,3.24.73,11.44.73,20.82V46.55H32.14Z"/></g><g class="cls-2"><path class="cls-1" d="M243.12,58.73h9.14L256.7,76.6c.95,3.95,1.41,7.6,1.89,10.74h.22c.49-3.14.95-6.79,1.89-10.74l4.57-17.88h9v46.19h-6.55V89.64c0-9.39.43-17.58.73-20.82h-.51l-7,30.15h-4.44l-7-30.15h-.51c.3,3.24.73,11.44.73,20.82v15.28h-6.55Z"/></g><g class="cls-2"><path class="cls-1" d="M212.49,208.65h9.14l4.44,17.88c.95,3.95,1.41,7.6,1.89,10.74h.22c.49-3.14.95-6.79,1.89-10.74l4.57-17.88h9v46.19H237V239.56c0-9.39.43-17.58.73-20.82h-.51l-7,30.15h-4.44l-7-30.15h-.51c.3,3.24.73,11.44.73,20.82v15.28h-6.55Z"/></g><g class="cls-2"><path class="cls-1" d="M.36,162.46H9.5l4.44,17.88c.95,3.95,1.41,7.6,1.89,10.74H16c.49-3.14.95-6.79,1.89-10.74l4.57-17.88h9v46.19H24.91V193.37c0-9.39.43-17.58.73-20.82h-.51l-7,30.15H13.72l-7-30.15H6.17c.3,3.24.73,11.44.73,20.82v15.28H.36Z"/></g><g class="cls-3"><polyline class="cls-4" points="274.22 1.36 274.22 0.36 273.22 0.36"/><line class="cls-5" x1="271.21" y1="0.36" x2="2.36" y2="0.36"/><polyline class="cls-4" points="1.36 0.36 0.36 0.36 0.36 1.36"/><line class="cls-6" x1="0.36" y1="3.34" x2="0.36" y2="252.85"/><polyline class="cls-4" points="0.36 253.84 0.36 254.84 1.36 254.84"/><line class="cls-5" x1="3.37" y1="254.84" x2="272.22" y2="254.84"/><polyline class="cls-4" points="273.22 254.84 274.22 254.84 274.22 253.84"/><line class="cls-6" x1="274.22" y1="251.85" x2="274.22" y2="2.35"/></g><g class="cls-3"><polyline class="cls-7" points="243.38 47.55 243.38 46.55 242.38 46.55"/><line class="cls-8" x1="240.39" y1="46.55" x2="34.14" y2="46.55"/><polyline class="cls-7" points="33.15 46.55 32.15 46.55 32.15 47.55"/><line class="cls-9" x1="32.14" y1="49.57" x2="32.14" y2="206.32"/><polyline class="cls-7" points="32.15 207.33 32.15 208.33 33.15 208.33"/><line class="cls-8" x1="35.14" y1="208.33" x2="241.39" y2="208.33"/><polyline class="cls-7" points="242.38 208.33 243.38 208.33 243.38 207.33"/><line class="cls-9" x1="243.38" y1="205.31" x2="243.38" y2="48.56"/></g></g></g></svg>