<svg xmlns="http://www.w3.org/2000/svg" xmlns:xlink="http://www.w3.org/1999/xlink" viewBox="0 0 211.66 161.92"><defs><style>.cls-1{fill:url(#linear-gradient);}.cls-2{fill:url(#linear-gradient-2);}.cls-3{fill:url(#linear-gradient-3);}.cls-4{fill:url(#linear-gradient-4);}.cls-5{fill:url(#linear-gradient-5);}.cls-6{fill:url(#linear-gradient-6);}.cls-7{fill:url(#linear-gradient-7);}.cls-8{fill:url(#linear-gradient-8);}.cls-9{fill:url(#linear-gradient-9);}.cls-10{fill:url(#linear-gradient-10);}.cls-11{fill:url(#linear-gradient-11);}.cls-12{fill:url(#linear-gradient-12);}.cls-13{fill:url(#linear-gradient-13);}.cls-14{fill:url(#linear-gradient-14);}.cls-15{fill:url(#linear-gradient-15);}.cls-16{fill:url(#linear-gradient-16);}.cls-17{fill:url(#linear-gradient-17);}.cls-18{fill:url(#linear-gradient-18);}.cls-19{fill:url(#linear-gradient-19);}.cls-20{fill:url(#linear-gradient-20);}.cls-21{fill:url(#linear-gradient-21);}.cls-22{fill:url(#linear-gradient-22);}.cls-23{fill:url(#linear-gradient-23);}.cls-24{fill:url(#linear-gradient-24);}.cls-25{fill:url(#linear-gradient-25);}.cls-26{fill:url(#linear-gradient-26);}</style><linearGradient id="linear-gradient" x1="-24.63" y1="21.05" x2="124.93" y2="221.77" gradientUnits="userSpaceOnUse"><stop offset="0" stop-color="#cc8a29"/><stop offset="0.06" stop-color="#cc8429"/><stop offset="0.27" stop-color="#cc772a"/><stop offset="0.53" stop-color="#cc6e2b"/><stop offset="1" stop-color="#cc6c2b"/></linearGradient><linearGradient id="linear-gradient-2" x1="12.73" y1="-6.79" x2="162.29" y2="193.94" xlink:href="#linear-gradient"/><linearGradient id="linear-gradient-3" x1="48.73" y1="-33.61" x2="198.29" y2="167.11" xlink:href="#linear-gradient"/><linearGradient id="linear-gradient-4" x1="-15.3" y1="14.09" x2="134.26" y2="214.82" xlink:href="#linear-gradient"/><linearGradient id="linear-gradient-5" x1="-33.75" y1="27.84" x2="115.81" y2="228.57" xlink:href="#linear-gradient"/><linearGradient id="linear-gradient-6" x1="-16.75" y1="15.17" x2="132.81" y2="215.9" xlink:href="#linear-gradient"/><linearGradient id="linear-gradient-7" x1="0.68" y1="2.19" x2="150.24" y2="202.92" xlink:href="#linear-gradient"/><linearGradient id="linear-gradient-8" x1="18.52" y1="-11.11" x2="168.08" y2="189.62" xlink:href="#linear-gradient"/><linearGradient id="linear-gradient-9" x1="33.93" y1="-22.59" x2="183.49" y2="178.14" xlink:href="#linear-gradient"/><linearGradient id="linear-gradient-10" x1="52.56" y1="-36.47" x2="202.12" y2="164.26" xlink:href="#linear-gradient"/><linearGradient id="linear-gradient-11" x1="70.08" y1="-49.52" x2="219.64" y2="151.21" xlink:href="#linear-gradient"/><linearGradient id="linear-gradient-12" x1="87.55" y1="-62.54" x2="237.11" y2="138.19" xlink:href="#linear-gradient"/><linearGradient id="linear-gradient-13" x1="-14.57" y1="13.55" x2="134.99" y2="214.27" xlink:href="#linear-gradient"/><linearGradient id="linear-gradient-14" x1="9.01" y1="-4.02" x2="158.57" y2="196.71" xlink:href="#linear-gradient"/><linearGradient id="linear-gradient-15" x1="28.12" y1="-18.26" x2="177.68" y2="182.47" xlink:href="#linear-gradient"/><linearGradient id="linear-gradient-16" x1="44.2" y1="-30.24" x2="193.76" y2="170.49" xlink:href="#linear-gradient"/><linearGradient id="linear-gradient-17" x1="57.84" y1="-40.4" x2="207.4" y2="160.32" xlink:href="#linear-gradient"/><linearGradient id="linear-gradient-18" x1="71.55" y1="-50.61" x2="221.11" y2="150.11" xlink:href="#linear-gradient"/><linearGradient id="linear-gradient-19" x1="84.65" y1="-60.38" x2="234.21" y2="140.35" xlink:href="#linear-gradient"/><linearGradient id="linear-gradient-20" x1="107.2" y1="-77.18" x2="256.76" y2="123.55" xlink:href="#linear-gradient"/><linearGradient id="linear-gradient-21" x1="3.34" y1="0.21" x2="152.9" y2="200.94" xlink:href="#linear-gradient"/><linearGradient id="linear-gradient-22" x1="13.85" y1="-7.63" x2="163.41" y2="193.1" xlink:href="#linear-gradient"/><linearGradient id="linear-gradient-23" x1="26.13" y1="-16.77" x2="175.69" y2="183.95" xlink:href="#linear-gradient"/><linearGradient id="linear-gradient-24" x1="44.45" y1="-30.43" x2="194.01" y2="170.3" xlink:href="#linear-gradient"/><linearGradient id="linear-gradient-25" x1="60.47" y1="-42.36" x2="210.03" y2="158.36" xlink:href="#linear-gradient"/><linearGradient id="linear-gradient-26" x1="84.29" y1="-60.11" x2="233.85" y2="140.62" xlink:href="#linear-gradient"/></defs><title>Asset 3</title><g id="Layer_2" data-name="Layer 2"><g id="Layer_1-2" data-name="Layer 1"><g id="Layer_2-2" data-name="Layer 2"><g id="Layer_1-2-2" data-name="Layer 1-2"><path class="cls-1" d="M155.85,156.39l-.22.15c-3.83,2.64-9.59,5.31-25.92,5.31l-129,.07v-5l129-.07c14.43,0,19.57-2.07,22.78-4.23l.12-.08s.46.61,1.58,2A21.51,21.51,0,0,0,155.85,156.39Z"/><path class="cls-2" d="M179.09,122.82l32.57.07v-6.72H179.09c-6.31,0-13.46,4.83-18.68,9.8l-.45.43c-1-.68-1.85-1.41-2.76-2.19l-1.34-1.09c-5-4-8.88-7.16-25.51-7.16L.69,116.07v5L130.35,121c14.86,0,17.85,2.41,22.37,6.05l1.3,1.06c4.69,3.85,9.54,7.83,25.34,7.83h32.3v-5h-32.3a47.21,47.21,0,0,1-12.85-1.4l.34-.31C169.71,126.69,175.15,122.82,179.09,122.82Z"/><path class="cls-3" d="M179.76,147.35h31.9v-5h-31.9a37.41,37.41,0,0,0-14.67,2.85,23.19,23.19,0,0,0-3.18,1.78,39.75,39.75,0,0,1-2.34-3.29l-.64-1a20.68,20.68,0,0,1-3,2.85A24.42,24.42,0,0,1,152.4,148l.22.32c3.51,5.39,8.89,13.5,26.72,13.5h32.29v-8.31H179.34c-6.32,0-10.37-1.12-13.23-2.81a11.89,11.89,0,0,1,2.61-1.46A30.09,30.09,0,0,1,179.76,147.35Z"/><path class="cls-4" d="M157.68,134.4c-1.39-.88-2.66-1.9-2.66-1.9a8.4,8.4,0,0,1-.8,1l-.85.91-2.53-1.95c-4.27-3.24-10.61-4.57-20.48-4.57L.7,128v8.34l129.67-.07a48,48,0,0,1,13.16,1.7,8.58,8.58,0,0,1,3.26,1.95c-3.55,2-8.56,3.42-16.45,3.42L.68,143.41v6.67L130.35,150c18.58,0,24.82-7.3,29-12.22.58-.68.88-1.12,1.46-1.88A18.62,18.62,0,0,1,157.68,134.4Z"/><path class="cls-5" d="M.91,95.9H6.32v2.23c0,5,1.13,7.67,4.53,7.67,2.64,0,4.1-1.51,4.1-4.29s-.67-4.58-3.23-7.84L4.41,85c-2.56-3.29-4-6.57-4-10.37,0-6.1,3.9-10.42,10.58-10.42,8.13,0,10.53,5.11,10.53,9.75a27.78,27.78,0,0,1-.73,5.5H15.37V77.3c0-4.85-1.32-7.57-4.47-7.57-2.61,0-3.91,1.59-3.91,4a8.39,8.39,0,0,0,2.19,5.77l8.11,9.8c3,3.85,4.58,7.19,4.58,11.15,0,6.52-4.23,10.61-11,10.61-8.32,0-10.69-4.85-10.69-9.75A21.85,21.85,0,0,1,.91,95.9Z"/><path class="cls-6" d="M25.81,95.69V79.4c0-13.87,7.14-15.16,11.42-15.16s11.34,1.05,11.34,15.14V95.68c0,13.66-7.3,15.38-11.34,15.38C32.79,111.07,25.81,109.5,25.81,95.69Zm15.51,2.72V77.48c0-5.9-1.32-7.73-4.07-7.73s-4.15,1.83-4.15,7.73V98.41c0,5.71,1.32,7.41,4.15,7.41S41.32,104.12,41.32,98.41Z"/><path class="cls-7" d="M53.09,64.67h5.66L69.91,95.45h.18a134,134,0,0,1-.73-14V64.65H75.6v46H69.88l-11.1-30h-.21a164.17,164.17,0,0,1,.73,16.45v13.52H53.09Z"/><path class="cls-8" d="M80.52,95.69V79.4c0-13.87,7.41-15.14,11.8-15.14,7.46,0,10.1,4.42,10.1,9.75a27.54,27.54,0,0,1-.64,5.5H96.2V77.32c0-5-1.4-7.57-4.07-7.57-2.92,0-4.31,1.83-4.31,7.73V98.33c0,5.71,1.32,7.46,4.26,7.46,3.1,0,4.42-3.42,4.42-7.84V92H92.92V87.41h10.37v23.3H98.65l-.73-4.38c-1.75,3.42-4,4.8-7.08,4.8C87.55,111.09,80.52,109.5,80.52,95.69Z"/><path class="cls-9" d="M107.79,64.67h7.06c6.25,0,14.33.78,14.33,10.42v2.23c0,4.9-3,8.29-6.14,9.05v.22c4.56.83,6.9,4.5,6.9,10V98.9c0,10-7,11.77-14.81,11.77h-7.3ZM116,84.38c3.75,0,6.25-1.69,6.25-6V76.48c0-4.29-1.64-6.71-6.25-6.71h-1.37v14.6Zm.64,21.47c3.72,0,6.22-1.94,6.22-6.25V96c0-4.31-1.64-6.71-6.22-6.71h-2v16.55Z"/><path class="cls-10" d="M133.59,95.69V79.4c0-13.87,7.14-15.14,11.45-15.14,4.15,0,11.34,1.05,11.34,15.14V95.69c0,13.66-7.3,15.38-11.34,15.38C140.54,111.07,133.59,109.5,133.59,95.69Zm15.51,2.72V77.48c0-5.9-1.32-7.73-4.07-7.73s-4.15,1.83-4.15,7.73V98.41c0,5.71,1.32,7.41,4.15,7.41s4-1.7,4-7.41Z"/><path class="cls-11" d="M160.8,95.69V79.4c0-13.87,7.1-15.16,11.48-15.16,4.15,0,11.34,1.05,11.34,15.14V95.68c0,13.66-7.3,15.38-11.34,15.38C167.78,111.07,160.8,109.5,160.8,95.69Zm15.51,2.72V77.48c0-5.9-1.32-7.73-4.07-7.73s-4.15,1.83-4.15,7.73V98.41c0,5.71,1.32,7.41,4.15,7.41S176.32,104.12,176.32,98.41Z"/><path class="cls-12" d="M188.41,64.67h7V84.76h.22l8-20.09h6.95l-8.9,21.57,9.88,24.43h-7.46l-8.45-21.9h-.22v21.9h-7Z"/><path class="cls-13" d="M20,53.59H8.76L6.95,58.17H0L11.12,32.27h6.95L28.93,58.17H21.73Zm-2-5.18-3.55-9.23-3.65,9.23Z"/><path class="cls-14" d="M38.83,32.27,45.7,47.39l6.86-15.11H60V58.17H54l0-16.4-6,13.82H43.48l-6-13.82v16.4h-6V32.27Z"/><path class="cls-15" d="M85.64,32.27v5.39H72v4.84H84.3v5.36L72,47.9v4.88H86v5.39H65.21V32.27Z"/><path class="cls-16" d="M106.93,58.17,103.17,51h-5v7.17H91.38V32.27H103c6.87,0,10.79,3.32,10.79,9.09,0,3.92-1.63,6.8-4.62,8.35l5.42,8.45ZM98.17,45.6h4.91c2.74,0,4.32-1.4,4.32-4s-1.59-3.91-4.32-3.91H98.17Z"/><path class="cls-17" d="M125,32.27V58.17h-6.75V32.27Z"/><path class="cls-18" d="M143.19,37.82a7,7,0,0,0-7,7q0,.16,0,.31a7,7,0,0,0,7,7.35,9.6,9.6,0,0,0,6.46-3.05l4,4.25a15.48,15.48,0,0,1-10.75,4.8c-7.8,0-13.64-5.69-13.64-13.3s6-13,13.87-13a14.86,14.86,0,0,1,10.45,4.38l-3.88,4.71A9,9,0,0,0,143.19,37.82Z"/><path class="cls-19" d="M174.26,53.59H163.07l-1.81,4.58H154.3l11.12-25.9h6.95l10.86,25.89H176Zm-2-5.18-3.55-9.23-3.65,9.23Z"/><path class="cls-20" d="M192.36,32.27l11.75,15.59V32.27h6.28V58.17h-5.91L192.73,42.66V58.17h-6.31V32.27Z"/><path class="cls-21" d="M21.17,7.81v4H15.6V26.47H10.73V11.83H5.19v-4Z"/><path class="cls-22" d="M28.54,7.81v7.61h7.54V7.81h4.87V26.47H36.08V19.31H28.54v7.16H23.67V7.81Z"/><path class="cls-23" d="M58.76,7.81v3.87H48.91v3.5H57.8V19l-8.88,0v3.51H59v3.88H44V7.81Z"/><path class="cls-24" d="M70.81,0,82.73,15.81V0h6.34V26.28h-6L71.18,10.53V26.28H64.77V0Z"/><path class="cls-25" d="M112.19,0V5.47H98.32v4.91h12.51V15.8l-12.51,0v4.95h14.24v5.49H91.46V0Z"/><path class="cls-26" d="M121.44,0l5,19,5-19h6.71l5,19L148,0h7L146.4,26.28h-7.08L134.59,8.54l-4.88,17.74h-7.07L114.06,0Z"/></g></g></g></g></svg>