<svg xmlns="http://www.w3.org/2000/svg" viewBox="0 0 403.04 127.38"><defs><style>.cls-1{fill:#414042;}.cls-2{fill:none;}.cls-3{fill:#fff;}.cls-4{fill:#27c2ff;}.cls-5{fill:#f7f7f7;}</style></defs><title>Asset 1</title><g id="Layer_2" data-name="Layer 2"><g id="Layer_1-2" data-name="Layer 1"><path class="cls-1" d="M117.72,98.26c-4,3.63-7.56,6-13.38,6-8.72,0-14.76-7.27-14.76-16v-.15c0-8.72,6.18-15.85,14.76-15.85,5.09,0,9.09,2.18,13,5.74l7.13-8.22c-4.73-4.65-10.47-7.85-20.07-7.85a26.5,26.5,0,0,0-18.2,6.84l3.81-6H77.29L64.93,83.21,52.79,62.78H34.17V94.12L10.33,62.78H0v50.9H11.05V81.32L35.7,113.68h9.53V71.49l14,22.12v20.07h11.2V93.39l8.76-13.71a27.5,27.5,0,0,0-1.35,8.55v.14C77.87,103,89,114.55,104,114.55c9.81,0,15.63-3.49,20.87-9.09Z"/><path class="cls-1" d="M135,85.63A8.53,8.53,0,0,1,127.72,82l2.62-2.68c1.33,1.68,2.65,2.65,4.56,2.65,2.13,0,3.59-1.42,3.59-4.42V62.69h4.07V77.61C142.56,83,139.42,85.63,135,85.63Z"/><path class="cls-1" d="M158.79,68.24h3.91V85.3h-3.91V82.65a6.14,6.14,0,0,1-5.33,3c-3.84,0-6.07-2.58-6.07-6.56V68.24h3.91v9.69c0,2.65,1.33,4.17,3.65,4.17s3.84-1.59,3.84-4.23Z"/><path class="cls-1" d="M171.54,85.3h-3.91V68.24h3.91v2.65a6.14,6.14,0,0,1,5.33-3c3.84,0,6.07,2.58,6.07,6.56V85.3H179V75.61c0-2.65-1.32-4.17-3.65-4.17s-3.84,1.59-3.84,4.23Z"/><path class="cls-1" d="M187.48,65.63V61.91h4.2v3.72Zm.16,19.68V68.24h3.91V85.3Z"/><path class="cls-1" d="M204.78,85.68a8.83,8.83,0,0,1-9-8.86,9.1,9.1,0,1,1,9,8.86Zm0-14.38c-3.13,0-5.14,2.45-5.14,5.46a5.28,5.28,0,0,0,5.2,5.52A5.13,5.13,0,0,0,210,76.82,5.28,5.28,0,0,0,204.78,71.3Z"/><path class="cls-1" d="M221.7,85.29h-3.91V68.23h3.91v3.84c1.07-2.55,3-4.3,6-4.17V72h-.22c-3.43,0-5.82,2.23-5.82,6.75Z"/><path class="cls-1" d="M151.61,113.6h-4.2l-2.3-5.46h-10.7l-2.33,5.46H128l10-22.78h3.68Zm-11.86-18-3.88,9h7.79Z"/><path class="cls-1" d="M174.89,96.19c3.71,0,6,2.36,6,6.53V113.6H177v-9.69c0-2.71-1.26-4.17-3.46-4.17s-3.65,1.49-3.65,4.23v9.63h-3.91v-9.73c0-2.65-1.29-4.14-3.46-4.14s-3.65,1.62-3.65,4.27v9.6h-3.91V96.54h3.91v2.58a6.11,6.11,0,0,1,5.2-2.94,5.37,5.37,0,0,1,5.07,3A7,7,0,0,1,174.89,96.19Z"/><path class="cls-1" d="M195.33,114a7,7,0,0,1-5.79-3v2.65h-3.91V90h3.91v9.37a6.82,6.82,0,0,1,5.79-3.2c4,0,7.95,3.2,7.95,8.89S199.41,114,195.33,114Zm-.9-14.38c-2.65,0-5,2.17-5,5.49s2.33,5.49,5,5.49,4.88-2.1,4.88-5.49S197.08,99.58,194.43,99.58Z"/><path class="cls-1" d="M217.74,113.6v-2.1a6.9,6.9,0,0,1-5.53,2.46c-3.23,0-6.07-1.84-6.07-5.27v-.07c0-3.68,2.94-5.49,6.91-5.49a14.29,14.29,0,0,1,4.72.71v-.42c0-2.36-1.48-3.65-4.2-3.65a11.87,11.87,0,0,0-4.88,1.07l-1.07-3.13a14.62,14.62,0,0,1,6.5-1.42c5,0,7.49,2.65,7.49,7.2V113.6Zm.1-7.24a11.23,11.23,0,0,0-3.91-.68c-2.46,0-3.91,1-3.91,2.75v.06c0,1.62,1.45,2.52,3.29,2.52,2.58,0,4.52-1.45,4.52-3.59Z"/><path class="cls-1" d="M232.13,113.93a12,12,0,0,1-7.24-2.55l1.75-2.65a9.56,9.56,0,0,0,5.59,2.1c1.68,0,2.65-.71,2.65-1.84v-.06c0-1.32-1.81-1.78-3.81-2.39-2.52-.71-5.33-1.75-5.33-5v-.06c0-3.23,2.68-5.2,6.07-5.2a11.85,11.85,0,0,1,6.27,1.94L236.53,101a9.9,9.9,0,0,0-4.82-1.62c-1.52,0-2.39.71-2.39,1.71v.07c0,1.23,1.84,1.74,3.84,2.39,2.49.78,5.3,1.91,5.3,5v.06C238.47,112.15,235.69,113.93,232.13,113.93Z"/><path class="cls-1" d="M248,113.93a12,12,0,0,1-7.24-2.55l1.75-2.65a9.56,9.56,0,0,0,5.59,2.1c1.68,0,2.65-.71,2.65-1.84v-.06c0-1.32-1.81-1.78-3.81-2.39-2.52-.71-5.33-1.75-5.33-5v-.06c0-3.23,2.68-5.2,6.07-5.2a11.85,11.85,0,0,1,6.27,1.94L252.37,101a9.91,9.91,0,0,0-4.82-1.62c-1.52,0-2.39.71-2.39,1.71v.07c0,1.23,1.84,1.74,3.84,2.39,2.49.78,5.3,1.91,5.3,5v.06C254.31,112.15,251.53,113.93,248,113.93Z"/><path class="cls-1" d="M268.92,113.6v-2.1a6.9,6.9,0,0,1-5.53,2.46c-3.23,0-6.07-1.84-6.07-5.27v-.07c0-3.68,2.94-5.49,6.91-5.49a14.29,14.29,0,0,1,4.72.71v-.42c0-2.36-1.48-3.65-4.2-3.65a11.87,11.87,0,0,0-4.88,1.07l-1.07-3.13a14.62,14.62,0,0,1,6.5-1.42c5,0,7.49,2.65,7.49,7.2V113.6Zm.1-7.24a11.23,11.23,0,0,0-3.91-.68c-2.46,0-3.91,1-3.91,2.75v.06c0,1.62,1.45,2.52,3.3,2.52,2.58,0,4.52-1.45,4.52-3.59Z"/><path class="cls-1" d="M290.14,113.6v-2.84a6.83,6.83,0,0,1-5.82,3.2c-4,0-7.92-3.2-7.92-8.89s3.85-8.89,7.92-8.89a7.07,7.07,0,0,1,5.82,3V90H294V113.6Zm-4.88-14c-2.68,0-4.91,2.07-4.91,5.49s2.26,5.49,4.91,5.49,4.94-2.17,4.94-5.49S287.87,99.58,285.26,99.58Z"/><path class="cls-1" d="M306.24,114a8.83,8.83,0,0,1-9-8.86,9.1,9.1,0,1,1,9,8.86Zm0-14.38c-3.13,0-5.14,2.45-5.14,5.46a5.28,5.28,0,0,0,5.2,5.52,5.13,5.13,0,0,0,5.17-5.46A5.28,5.28,0,0,0,306.24,99.61Z"/><path class="cls-1" d="M322.84,113.61h-3.91V96.55h3.91v3.84c1.07-2.55,3-4.3,6-4.17v4.14h-.22c-3.43,0-5.82,2.23-5.82,6.75Z"/><path class="cls-1" d="M338.14,113.93a12,12,0,0,1-7.24-2.55l1.75-2.65a9.56,9.56,0,0,0,5.59,2.1c1.68,0,2.65-.71,2.65-1.84v-.06c0-1.32-1.81-1.78-3.81-2.39-2.52-.71-5.33-1.75-5.33-5v-.06c0-3.23,2.68-5.2,6.07-5.2a11.85,11.85,0,0,1,6.27,1.94L342.53,101a9.91,9.91,0,0,0-4.82-1.62c-1.52,0-2.39.71-2.39,1.71v.07c0,1.23,1.84,1.74,3.84,2.39,2.49.78,5.3,1.91,5.3,5v.06C344.47,112.15,341.69,113.93,338.14,113.93Z"/><line class="cls-2" x1="329.93" y1="59.32" x2="331.41" y2="73.33"/><circle class="cls-3" cx="180.19" cy="17.3" r="1.73"/><circle class="cls-3" cx="190.91" cy="19.85" r="1.73"/><circle class="cls-3" cx="190.91" cy="26.93" r="1.73"/><circle class="cls-3" cx="208.1" cy="28.66" r="1.73"/><circle class="cls-3" cx="216.94" cy="9.57" r="1.73"/><path class="cls-4" d="M139.65,0c-5.72,0-9.51.51-11.83.67a.58.58,0,0,0-.54.66l3.92,32.15a.58.58,0,0,0,.57.52h0c2.24-.07,7.66-.93,14.93-.93h.06l-3.26-33Q141.45,0,139.65,0Z"/><path class="cls-4" d="M173.19,10.58l3.32-.47V5.28A.59.59,0,0,0,176,4.7c-2.32-.45-7.52-1.75-16.63-3l2.13,32.88c4.34.86,8.34,1.93,11.17,2.67a.17.17,0,0,0,.21-.19l-2.74-22.46A3.58,3.58,0,0,1,173.19,10.58Z"/><path class="cls-4" d="M218.5,19.58c.45-.22,1.16-.59,2-1.05l1.6-.84a.47.47,0,0,0,.25-.41V1.54c0-.34,0-.89-.79-.56a239.18,239.18,0,0,1-23.83,8.17,182.83,182.83,0,0,1-18.28,3.57l-3,.42c-1.21.17-2.19.3-2.86.4a.59.59,0,0,0-.49.66L176.06,38l.18,1.49.18,1.48.66,5.41a.59.59,0,0,0,.58.52h.1c3-.5,12.4-1.87,20-3.8a139.53,139.53,0,0,0,20.3-7,.22.22,0,0,0,.13-.24L216.51,23.3A3.57,3.57,0,0,1,218.5,19.58Z"/><path class="cls-4" d="M260.29,22.18A3.58,3.58,0,0,1,263,20.53l5.5-.5a.25.25,0,0,0,.23-.26V5a.59.59,0,0,0-.6-.59H268a230.89,230.89,0,0,0-23.92,6.92c-9.91,3.53-23.7,10.71-24.28,11a.57.57,0,0,0-.32.61l1.61,11.75.21,1.56.21,1.56,2.13,15.6a.59.59,0,0,0,.58.52.58.58,0,0,0,.26-.06c3.08-1.54,14.51-7.09,20.56-9.55a110.53,110.53,0,0,1,15.84-5,.27.27,0,0,0,.21-.29l-1.35-14.42A3.78,3.78,0,0,1,260.29,22.18Z"/><path class="cls-4" d="M312,34.73V25.11a.61.61,0,0,0-.51-.59,119.49,119.49,0,0,0-24.17-2.47c-5.28,0-18.1.93-18.58,1l-5.46.5a.59.59,0,0,0-.54.65l1,10.74A190.25,190.25,0,0,1,286.91,33,220.19,220.19,0,0,1,312,34.73Z"/><path class="cls-4" d="M284.73,44.9c-7.84,0-17.51,1.81-19.87,2l.89,9.47a.59.59,0,0,0,.58.54h.06c2.78-.28,12.73-1.54,19.7-1.54h1.24c2.91.07,6.3.34,9.62.68,0,0-1.24-10.15-1.21-10.43A73.08,73.08,0,0,0,284.73,44.9Z"/><path class="cls-4" d="M338,53.06c2.39-.56,5.88-1.37,10-2.12V34.58a.59.59,0,0,0-.58-.6c-.06,0-14.2,5.42-24.15,7.7-2.61.6-10.73,2-11.23,2.07-5.73.87-10.83,1.44-12.77,1.69a.59.59,0,0,0-.51.66L300,56.39l2.64,20.91a.59.59,0,0,0,.58.52h.07c2.85-.32,11.93-1,20-2.82,4-.91,7.69-1.92,11.07-3l-1.2-11.15-3,.47.56,5.06a14.13,14.13,0,0,1-3.05.95,21.22,21.22,0,0,1-3.07.51l-.86-5.52-5.52.86-1-6.42,5.52-.86L322.07,51l6.46-1.57.59,5.51,6.51-1.35C336.19,53.47,337,53.29,338,53.06Z"/><path class="cls-4" d="M384.66,83.55a.28.28,0,0,0,.37-.28V52.45a.59.59,0,0,0-.55-.59c-2.59-.15-9.92-.29-16.89-.06L369,79.61C374.26,80.72,380.26,82.12,384.66,83.55Z"/><path class="cls-4" d="M336.22,56.53a.59.59,0,0,0-.44.64L339.2,89a.59.59,0,0,0,.58.53s9-1.89,14.57-2.86l-.56-5.26c0-.12,0-.24,0-.35L351,53.5C344.58,54.6,338.42,56,336.22,56.53Z"/><path class="cls-4" d="M402.73,94c-1.6-.72-16.13-7.42-22.84-8.82h0c-7.37-2.08-22.47-4.78-22.51-4.78a.59.59,0,0,0-.59.66l3.56,33.2a.59.59,0,0,0,.49.52c2.47.41,11.86,1.6,19.05,3.73,8.06,2.39,20.81,7.93,22.88,8.84l.08,0a.21.21,0,0,0,.21-.21V94.5A.53.53,0,0,0,402.73,94Z"/><circle class="cls-5" cx="179.19" cy="19.03" r="1.73"/><circle class="cls-5" cx="189.91" cy="21.58" r="1.73"/><circle class="cls-5" cx="189.91" cy="28.66" r="1.73"/><circle class="cls-5" cx="207.1" cy="30.38" r="1.73"/><circle class="cls-5" cx="215.94" cy="11.3" r="1.73"/></g></g></svg>