<svg xmlns="http://www.w3.org/2000/svg" viewBox="0 0 171.37 96.74"><defs><style>.cls-1{fill:#f9ed32;}.cls-2{fill:#fff;}</style></defs><title>Asset 3</title><g id="Layer_2" data-name="Layer 2"><g id="Layer_1-2" data-name="Layer 1"><path class="cls-1" d="M35,.07A172.66,172.66,0,0,1,17.78,6,132,132,0,0,1,4.59,8.55l-2.17.31L.36,9.14A.42.42,0,0,0,0,9.62L2.09,26.77l.13,1.08.13,1.07.48,3.9a.42.42,0,0,0,.42.38h.07c2.17-.36,9-1.35,14.46-2.75a100.72,100.72,0,0,0,14.65-5.09.16.16,0,0,0,.09-.17l-1.23-9a2.58,2.58,0,0,1,1.44-2.68c.33-.16.83-.42,1.48-.76l1.15-.6a.34.34,0,0,0,.18-.3V.48C35.55.23,35.55-.16,35,.07Z"/><path class="cls-1" d="M69.65,3.6h-.1a166.68,166.68,0,0,0-17.27,5,177.23,177.23,0,0,0-17.53,7.93.41.41,0,0,0-.23.44l1.16,8.48.15,1.13L36,27.71,37.53,39a.43.43,0,0,0,.42.37.42.42,0,0,0,.19,0c2.22-1.11,10.48-5.12,14.84-6.89a79.79,79.79,0,0,1,11.44-3.6.19.19,0,0,0,.15-.21l-1-10.41A2.73,2.73,0,0,1,64,16.46a2.58,2.58,0,0,1,2-1.19l4-.36a.18.18,0,0,0,.16-.18V4A.42.42,0,0,0,69.65,3.6Z"/><path class="cls-1" d="M102,19.24a86.26,86.26,0,0,0-17.45-1.79c-3.81,0-13.06.67-13.41.7l-3.94.36a.43.43,0,0,0-.39.47l1,10.4L69,42.23a.42.42,0,0,0,.42.39h0c2-.2,9.19-1.11,14.22-1.11h.89c2.1.05,4.55.25,6.95.49l-.87-6.92a2.6,2.6,0,0,1,2.23-2.9L94.34,32c1.85-.23,4.83-.59,8-1.09V19.66A.44.44,0,0,0,102,19.24Z"/><path class="cls-1" d="M129,27.15a169.33,169.33,0,0,1-17.43,5.56c-1.88.43-7.75,1.44-8.1,1.49-4.14.63-7.82,1-9.22,1.22a.43.43,0,0,0-.37.48l.94,7.42,1.9,15.09a.42.42,0,0,0,.42.38h0a121.4,121.4,0,0,0,14.44-2c2.86-.65,5.55-1.39,8-2.14l-1.13-10.5a2.58,2.58,0,0,1,2.05-2.82l1.7-.38c1.73-.4,4.25-1,7.19-1.53V27.58A.43.43,0,0,0,129,27.15Z"/><path class="cls-1" d="M156.89,41.14a152.18,152.18,0,0,0-17.61.28A144.64,144.64,0,0,0,122,44.51a.42.42,0,0,0-.32.46l2.47,23a.42.42,0,0,0,.42.38s6.51-1.36,10.52-2.07l-.41-3.8a2.59,2.59,0,0,1,2.58-2.87h0c.16,0,12.74,2.17,19.71,4.43a.2.2,0,0,0,.27-.2V41.57A.42.42,0,0,0,156.89,41.14Z"/><path class="cls-1" d="M154.66,66.28h0c-5.32-1.5-16.22-3.45-16.25-3.45a.43.43,0,0,0-.42.47l2.57,24a.43.43,0,0,0,.35.38,111.41,111.41,0,0,1,13.75,2.7c5.82,1.73,15,5.73,16.52,6.38h.06a.15.15,0,0,0,.15-.15V73a.38.38,0,0,0-.23-.35C170,72.14,159.5,67.3,154.66,66.28Z"/><path class="cls-2" d="M20.32,87.55,8.55,72.1V87.55H3.28V63.24H8.21l11.39,15v-15h5.28v24.3Z"/><path class="cls-2" d="M42.81,77.86v9.69H37.46V78L28.12,63.24h6.25L40.17,73l5.9-9.76h6.08Z"/><path class="cls-2" d="M64.82,88a12.27,12.27,0,0,1-12.46-12.5V75.4A12.35,12.35,0,0,1,65,62.83a12.54,12.54,0,0,1,9.58,3.75L71.2,70.5A9,9,0,0,0,65,67.76c-4.1,0-7,3.4-7,7.57v.07c0,4.17,2.88,7.64,7,7.64,2.78,0,4.48-1.11,6.39-2.85l3.4,3.44A12.42,12.42,0,0,1,64.82,88Z"/><path class="cls-2" d="M85.2,87.89a9.94,9.94,0,0,1-8-3.65l3.37-3.75C82,82,83.36,82.93,85.07,82.93c2,0,3.26-1.21,3.26-4V63.24h5.49v15.9C93.81,85,90.34,87.89,85.2,87.89Z"/><path class="cls-2" d="M116.15,87.55l-2.22-5.45H103.65l-2.22,5.45H96L106.4,63.07h4.93l10.41,24.48Zm-7.36-18.05-3.23,7.88H112Z"/></g></g></svg>