<svg xmlns="http://www.w3.org/2000/svg" viewBox="0 0 1096.32 554.1"><defs><style>.cls-1{fill:#f1f2f2;}.cls-11,.cls-14,.cls-15,.cls-16,.cls-17,.cls-2,.cls-4,.cls-5,.cls-6,.cls-7,.cls-8,.cls-9{fill:none;}.cls-14,.cls-15,.cls-16,.cls-17,.cls-2,.cls-4,.cls-5,.cls-6,.cls-7,.cls-8,.cls-9{stroke:#231f20;stroke-miterlimit:10;}.cls-2,.cls-4,.cls-5,.cls-6{stroke-width:0.71px;}.cls-2{stroke-dasharray:2 2;}.cls-2,.cls-3{opacity:0.25;}.cls-5{stroke-dasharray:2.01 2.01;}.cls-6{stroke-dasharray:1.99 1.99;}.cls-14,.cls-15,.cls-16,.cls-17,.cls-7,.cls-8,.cls-9{stroke-width:0.5px;}.cls-8{stroke-dasharray:2.01 2.01;}.cls-9{stroke-dasharray:1.98 1.98;}.cls-10{fill:#414042;}.cls-12{fill:#fff;}.cls-13{fill:#d1d3d4;}.cls-14{stroke-dasharray:1.98 1.98;}.cls-15{stroke-dasharray:2.04 2.04;}.cls-16{stroke-dasharray:2.02 2.02;}.cls-17{stroke-dasharray:1.98 1.98;}</style></defs><title>Asset 5</title><g id="Layer_2" data-name="Layer 2"><g id="Layer_1-2" data-name="Layer 1"><rect class="cls-1" width="1096.32" height="554.1"/><line class="cls-2" x1="661.34" x2="661.34" y2="554.1"/><g class="cls-3"><polyline class="cls-4" points="562.63 173.68 562.63 172.68 561.63 172.68"/><line class="cls-5" x1="559.62" y1="172.68" x2="102.84" y2="172.68"/><polyline class="cls-4" points="101.83 172.68 100.83 172.68 100.83 173.68"/><line class="cls-6" x1="100.83" y1="175.67" x2="100.83" y2="389.32"/><polyline class="cls-4" points="100.83 390.31 100.83 391.31 101.83 391.31"/><line class="cls-5" x1="103.84" y1="391.31" x2="560.63" y2="391.31"/><polyline class="cls-4" points="561.63 391.31 562.63 391.31 562.63 390.31"/><line class="cls-6" x1="562.63" y1="388.32" x2="562.63" y2="174.67"/></g><g class="cls-3"><polyline class="cls-7" points="520.38 221.41 520.38 220.41 519.38 220.41"/><line class="cls-8" x1="517.37" y1="220.41" x2="145.05" y2="220.41"/><polyline class="cls-7" points="144.04 220.41 143.04 220.41 143.04 221.41"/><line class="cls-9" x1="143.04" y1="223.39" x2="143.04" y2="341.15"/><polyline class="cls-7" points="143.04 342.14 143.04 343.14 144.04 343.14"/><line class="cls-8" x1="146.05" y1="343.14" x2="518.37" y2="343.14"/><polyline class="cls-7" points="519.38 343.14 520.38 343.14 520.38 342.14"/><line class="cls-9" x1="520.38" y1="340.16" x2="520.38" y2="222.4"/></g><path class="cls-10" d="M253.68,312.12c-3.73,3.39-7.06,5.56-12.49,5.56-8.14,0-13.77-6.79-13.77-14.93v-.14c0-8.14,5.77-14.79,13.77-14.79,4.75,0,8.48,2,12.15,5.36l6.65-7.67c-4.41-4.34-9.77-7.33-18.73-7.33a24.73,24.73,0,0,0-17,6.38l3.56-5.57H216l-11.54,19.07L193.09,279H175.71v29.25L153.45,279h-9.64v47.5h10.31v-30.2l23,30.2H186V287.14l13.1,20.65v18.73h10.45V307.58l8.17-12.8a25.67,25.67,0,0,0-1.26,8v.13a24,24,0,0,0,24.36,24.43c9.16,0,14.59-3.26,19.47-8.48Z"/><path class="cls-10" d="M269.78,300.33a8,8,0,0,1-6.76-3.41l2.44-2.5c1.24,1.57,2.47,2.47,4.25,2.47,2,0,3.35-1.33,3.35-4.13V278.92h3.8v13.93C276.87,297.86,273.94,300.33,269.78,300.33Z"/><path class="cls-10" d="M292,284.11h3.65V300H292v-2.47a5.73,5.73,0,0,1-5,2.81c-3.59,0-5.67-2.41-5.67-6.12V284.11H285v9c0,2.47,1.24,3.89,3.41,3.89s3.59-1.48,3.59-4Z"/><path class="cls-10" d="M303.91,300h-3.65V284.11h3.65v2.47a5.73,5.73,0,0,1,5-2.8c3.59,0,5.67,2.41,5.67,6.12V300h-3.65v-9c0-2.47-1.24-3.89-3.41-3.89s-3.59,1.48-3.59,4Z"/><path class="cls-10" d="M318.8,281.66v-3.47h3.92v3.47Zm.15,18.37V284.11h3.65V300Z"/><path class="cls-10" d="M334.94,300.38a8.24,8.24,0,0,1-8.44-8.26,8.49,8.49,0,1,1,8.44,8.26Zm0-13.42a4.78,4.78,0,0,0-4.79,5.1,4.92,4.92,0,0,0,4.86,5.16,4.79,4.79,0,0,0,4.82-5.1A4.93,4.93,0,0,0,334.94,287Z"/><path class="cls-10" d="M350.73,300h-3.65V284.09h3.65v3.59c1-2.38,2.83-4,5.64-3.89v3.86h-.21c-3.2,0-5.43,2.08-5.43,6.3Z"/><path class="cls-10" d="M285.31,326.44h-3.92l-2.14-5.1h-10l-2.17,5.1h-3.8l9.29-21.26H276Zm-11.07-16.83-3.62,8.44h7.27Z"/><path class="cls-10" d="M307,310.19c3.47,0,5.58,2.2,5.58,6.09v10.16H309v-9c0-2.53-1.18-3.89-3.23-3.89s-3.41,1.39-3.41,4v9h-3.65v-9.08c0-2.47-1.2-3.86-3.23-3.86s-3.41,1.51-3.41,4v9h-3.65V310.52h3.65v2.41a5.71,5.71,0,0,1,4.86-2.74,5,5,0,0,1,4.74,2.8A6.5,6.5,0,0,1,307,310.19Z"/><path class="cls-10" d="M326.12,326.77a6.49,6.49,0,0,1-5.4-2.81v2.47h-3.65v-22h3.65v8.75a6.36,6.36,0,0,1,5.4-3c3.77,0,7.42,3,7.42,8.29S329.92,326.77,326.12,326.77Zm-.84-13.42a5.15,5.15,0,0,0,0,10.25c2.5,0,4.55-2,4.55-5.13S327.75,313.35,325.28,313.35Z"/><path class="cls-10" d="M347,326.44v-2a6.44,6.44,0,0,1-5.16,2.29c-3,0-5.67-1.72-5.67-4.91v-.06c0-3.44,2.74-5.13,6.45-5.13a13.33,13.33,0,0,1,4.4.67v-.39c0-2.2-1.39-3.41-3.92-3.41a11.08,11.08,0,0,0-4.55,1l-1-2.92a13.64,13.64,0,0,1,6.06-1.33c4.7,0,7,2.47,7,6.72v9.44Zm.09-6.76a10.48,10.48,0,0,0-3.65-.63c-2.29,0-3.65.94-3.65,2.56v.06c0,1.51,1.35,2.35,3.08,2.35,2.41,0,4.22-1.36,4.22-3.35Z"/><path class="cls-10" d="M360.47,326.74a11.19,11.19,0,0,1-6.76-2.38l1.63-2.47a8.92,8.92,0,0,0,5.22,2c1.57,0,2.47-.66,2.47-1.72v-.06c0-1.24-1.69-1.66-3.56-2.23-2.35-.66-5-1.63-5-4.68v-.06c0-3,2.5-4.86,5.67-4.86a11.06,11.06,0,0,1,5.85,1.81l-1.45,2.6a9.24,9.24,0,0,0-4.5-1.51c-1.42,0-2.23.67-2.23,1.6v.06c0,1.15,1.72,1.63,3.59,2.23,2.32.73,4.95,1.78,4.95,4.65v.06C366.38,325.08,363.78,326.74,360.47,326.74Z"/><path class="cls-10" d="M375.25,326.74a11.19,11.19,0,0,1-6.76-2.38l1.63-2.47a8.92,8.92,0,0,0,5.22,2c1.57,0,2.47-.66,2.47-1.72v-.06c0-1.24-1.69-1.66-3.56-2.23-2.35-.66-5-1.63-5-4.68v-.06c0-3,2.5-4.86,5.67-4.86a11.06,11.06,0,0,1,5.85,1.81l-1.45,2.6a9.25,9.25,0,0,0-4.5-1.51c-1.42,0-2.23.67-2.23,1.6v.06c0,1.15,1.72,1.63,3.59,2.23,2.32.73,4.95,1.78,4.95,4.65v.06C381.16,325.08,378.57,326.74,375.25,326.74Z"/><path class="cls-10" d="M394.8,326.44v-2a6.44,6.44,0,0,1-5.16,2.29c-3,0-5.67-1.72-5.67-4.91v-.06c0-3.44,2.74-5.13,6.45-5.13a13.33,13.33,0,0,1,4.4.67v-.39c0-2.2-1.39-3.41-3.92-3.41a11.08,11.08,0,0,0-4.55,1l-1-2.92a13.64,13.64,0,0,1,6.06-1.33c4.7,0,7,2.47,7,6.72v9.44Zm.09-6.76a10.48,10.48,0,0,0-3.65-.63c-2.29,0-3.65.94-3.65,2.56v.06c0,1.51,1.36,2.35,3.08,2.35,2.41,0,4.22-1.36,4.22-3.35Z"/><path class="cls-10" d="M414.6,326.44v-2.65a6.38,6.38,0,0,1-5.43,3c-3.74,0-7.39-3-7.39-8.29s3.59-8.29,7.39-8.29a6.6,6.6,0,0,1,5.43,2.8v-8.57h3.65v22ZM410,313.35c-2.5,0-4.58,1.93-4.58,5.13s2.11,5.13,4.58,5.13,4.61-2,4.61-5.13S412.49,313.35,410,313.35Z"/><path class="cls-10" d="M429.63,326.8a8.24,8.24,0,0,1-8.44-8.26,8.49,8.49,0,1,1,8.44,8.26Zm0-13.42a4.78,4.78,0,0,0-4.79,5.1,4.92,4.92,0,0,0,4.86,5.16,4.79,4.79,0,0,0,4.82-5.1A4.93,4.93,0,0,0,429.63,313.38Z"/><path class="cls-10" d="M445.13,326.45h-3.65V310.52h3.65v3.59c1-2.38,2.83-4,5.64-3.89v3.86h-.21c-3.2,0-5.43,2.08-5.43,6.3Z"/><path class="cls-10" d="M459.4,326.75a11.19,11.19,0,0,1-6.76-2.38l1.63-2.47a8.92,8.92,0,0,0,5.22,2c1.57,0,2.47-.66,2.47-1.72v-.06c0-1.24-1.69-1.66-3.56-2.23-2.35-.66-5-1.63-5-4.68v-.06c0-3,2.5-4.86,5.67-4.86a11.06,11.06,0,0,1,5.85,1.81l-1.45,2.6a9.25,9.25,0,0,0-4.5-1.51c-1.42,0-2.23.67-2.23,1.6v.06c0,1.15,1.72,1.63,3.59,2.23,2.32.73,4.95,1.78,4.95,4.65v.06C465.31,325.09,462.72,326.75,459.4,326.75Z"/><line class="cls-11" x1="451.74" y1="275.78" x2="453.12" y2="288.86"/><circle class="cls-12" cx="311.99" cy="236.56" r="1.61"/><circle class="cls-12" cx="322" cy="238.94" r="1.61"/><circle class="cls-12" cx="322" cy="245.55" r="1.61"/><circle class="cls-12" cx="338.04" cy="247.16" r="1.61"/><circle class="cls-12" cx="346.29" cy="229.35" r="1.61"/><path class="cls-12" d="M285.54,221.07c-2.88-.32-5.46-.5-7.78-.59l3,30.8c1.51,0,3.1,0,4.77.14a67.38,67.38,0,0,1,9,1.23l-2-30.69C290.47,221.66,288.13,221.36,285.54,221.07Z"/><path class="cls-10" d="M274.15,220.41c-5.34,0-8.88.48-11,.63a.55.55,0,0,0-.51.62l3.66,30a.54.54,0,0,0,.53.49h0c2.09-.07,7.15-.86,13.94-.86h.05l-3-30.8Q275.84,220.41,274.15,220.41Z"/><path class="cls-10" d="M305.46,230.29l3.1-.44v-4.51a.55.55,0,0,0-.44-.54c-2.17-.42-7-1.64-15.52-2.84l2,30.69c4,.8,7.79,1.8,10.43,2.49a.16.16,0,0,0,.2-.18l-2.55-21A3.34,3.34,0,0,1,305.46,230.29Z"/><path class="cls-10" d="M347.74,238.69c.42-.2,1.08-.55,1.91-1l1.49-.78a.44.44,0,0,0,.24-.39V221.85c0-.32,0-.83-.73-.52A223.23,223.23,0,0,1,328.41,229a170.64,170.64,0,0,1-17.06,3.33l-2.8.4-2.67.38a.55.55,0,0,0-.46.61l2.7,22.18.17,1.4.17,1.38.62,5a.55.55,0,0,0,.54.49h.09c2.81-.47,11.58-1.74,18.7-3.55A130.22,130.22,0,0,0,347.36,254a.21.21,0,0,0,.12-.22l-1.59-11.65A3.33,3.33,0,0,1,347.74,238.69Z"/><path class="cls-10" d="M386.74,241.12a3.34,3.34,0,0,1,2.54-1.54l5.13-.47a.23.23,0,0,0,.21-.24V225a.55.55,0,0,0-.56-.55h-.13A215.49,215.49,0,0,0,371.62,231c-9.25,3.29-22.12,10-22.66,10.26a.54.54,0,0,0-.3.57l1.5,11,.2,1.46.2,1.46,2,14.56a.55.55,0,0,0,.54.48.54.54,0,0,0,.24-.06c2.87-1.44,13.55-6.62,19.19-8.91a103.16,103.16,0,0,1,14.79-4.65.25.25,0,0,0,.19-.27l-1.26-13.46A3.53,3.53,0,0,1,386.74,241.12Z"/><path class="cls-10" d="M435,252.83v-9a.57.57,0,0,0-.47-.55A111.52,111.52,0,0,0,412,241c-4.93,0-16.89.86-17.34.9l-5.1.47a.55.55,0,0,0-.5.6l.94,10a177.56,177.56,0,0,1,21.63-1.77A205.51,205.51,0,0,1,435,252.83Z"/><path class="cls-12" d="M419.83,263a3.36,3.36,0,0,1,2.88-3l1.87-.23c2.4-.29,6.25-.76,10.41-1.4v-5.59a205.51,205.51,0,0,0-23.4-1.61A177.56,177.56,0,0,0,390,253l.32,3.42.73,7.78c2.2-.18,11.23-1.83,18.55-1.87A68.21,68.21,0,0,1,419.83,263Z"/><path class="cls-10" d="M409.55,262.32c-7.32,0-16.35,1.69-18.55,1.87l.83,8.84a.55.55,0,0,0,.54.5h.06c2.59-.26,11.88-1.44,18.39-1.44H412c2.72.07,5.88.32,9,.63,0,0-1.15-9.47-1.13-9.73A68.21,68.21,0,0,0,409.55,262.32Z"/><path class="cls-10" d="M459.26,269.93c2.23-.52,5.49-1.28,9.29-2V252.69a.55.55,0,0,0-.54-.56c-.06,0-13.25,5.06-22.54,7.18-2.44.56-10,1.86-10.48,1.93-5.35.81-10.11,1.34-11.91,1.58a.55.55,0,0,0-.47.62l1.21,9.6,2.46,19.51a.55.55,0,0,0,.54.48h.06a157,157,0,0,0,18.66-2.63c3.7-.84,7.18-1.8,10.33-2.77l-1.12-10.41-2.84.44.52,4.72a13.18,13.18,0,0,1-2.85.88,19.81,19.81,0,0,1-2.86.47l-.8-5.15-5.15.8-.93-6,5.15-.8-.59-4.6,6-1.47.55,5.14,6.08-1.26C457.59,270.32,458.33,270.15,459.26,269.93Z"/><path class="cls-10" d="M502.82,298.39a.26.26,0,0,0,.35-.26V269.37a.55.55,0,0,0-.51-.55c-2.42-.14-9.26-.27-15.77-.06l1.32,26C493.12,295.75,498.72,297.05,502.82,298.39Z"/><path class="cls-12" d="M477.34,292.65h0c.11,0,5,.83,10.87,2.06l-1.32-26c-2.47.08-4.89.21-7,.42-2.63.25-5.58.68-8.46,1.17L474,296a3.32,3.32,0,0,1,3.33-3.38Z"/><path class="cls-10" d="M457.61,273.18a.55.55,0,0,0-.41.59l3.19,29.68a.55.55,0,0,0,.54.5s8.42-1.76,13.6-2.67l-.53-4.91c0-.11,0-.22,0-.33l-2.59-25.68C465.41,271.37,459.67,272.66,457.61,273.18Z"/><path class="cls-10" d="M519.69,308.15c-1.49-.67-15.05-6.92-21.32-8.24h0c-6.88-1.94-21-4.46-21-4.46a.55.55,0,0,0-.55.61l3.32,31a.55.55,0,0,0,.45.49c2.31.38,11.07,1.49,17.78,3.48,7.52,2.23,19.42,7.4,21.36,8.25l.08,0a.19.19,0,0,0,.19-.19V308.61A.5.5,0,0,0,519.69,308.15Z"/><path class="cls-12" d="M444.41,268l.59,4.6-5.15.8.93,6,5.15-.8.8,5.15a19.81,19.81,0,0,0,2.86-.47,13.18,13.18,0,0,0,2.85-.88l-.52-4.72,2.84-.44-.34-3.17a3.33,3.33,0,0,1,1.71-3.28l.83-.33-6,1.23-.55-5.14Z"/><circle class="cls-12" cx="311.06" cy="238.17" r="1.61"/><circle class="cls-12" cx="321.06" cy="240.55" r="1.61"/><circle class="cls-12" cx="321.06" cy="247.16" r="1.61"/><circle class="cls-12" cx="337.11" cy="248.77" r="1.61"/><circle class="cls-12" cx="345.36" cy="230.96" r="1.61"/><polygon class="cls-13" points="143.04 220.18 132.68 220.18 132.68 249.43 110.43 220.18 100.79 220.18 100.79 267.69 111.11 267.69 111.11 237.49 134.11 267.69 143 267.69 143.04 220.18"/><polygon class="cls-13" points="519.51 172.68 509.15 172.68 509.15 201.93 486.89 172.68 477.26 172.68 477.26 220.18 487.57 220.18 487.57 189.99 510.58 220.18 519.47 220.18 519.51 172.68"/><polygon class="cls-13" points="562.63 294.77 552.27 294.77 552.27 324.02 530.01 294.77 520.38 294.77 520.38 342.28 530.69 342.28 530.69 312.08 553.7 342.28 562.59 342.28 562.63 294.77"/><polygon class="cls-13" points="185.3 343.14 174.94 343.14 174.94 372.39 152.68 343.14 143.04 343.14 143.04 390.64 153.36 390.64 153.36 360.44 176.37 390.64 185.25 390.64 185.3 343.14"/><g class="cls-3"><polyline class="cls-7" points="950.7 233.13 950.7 232.13 949.7 232.13"/><line class="cls-14" x1="947.72" y1="232.13" x2="794.66" y2="232.13"/><polyline class="cls-7" points="793.67 232.13 792.67 232.13 792.67 233.13"/><line class="cls-15" x1="792.67" y1="235.17" x2="792.67" y2="319.81"/><polyline class="cls-7" points="792.67 320.82 792.67 321.82 793.67 321.82"/><line class="cls-14" x1="795.64" y1="321.82" x2="948.71" y2="321.82"/><polyline class="cls-7" points="949.7 321.82 950.7 321.82 950.7 320.82"/><line class="cls-15" x1="950.69" y1="318.79" x2="950.69" y2="234.15"/></g><g class="cls-3"><polyline class="cls-7" points="970.61 210.75 970.61 209.75 969.61 209.75"/><line class="cls-16" x1="967.59" y1="209.75" x2="774.77" y2="209.75"/><polyline class="cls-7" points="773.76 209.75 772.76 209.75 772.76 210.75"/><line class="cls-17" x1="772.76" y1="212.73" x2="772.76" y2="342.37"/><polyline class="cls-7" points="772.76 343.36 772.76 344.36 773.76 344.36"/><line class="cls-16" x1="775.78" y1="344.36" x2="968.6" y2="344.36"/><polyline class="cls-7" points="969.61 344.36 970.61 344.36 970.61 343.36"/><line class="cls-17" x1="970.61" y1="341.38" x2="970.61" y2="211.74"/></g><polygon class="cls-13" points="792.67 232.13 787.79 232.13 787.79 245.92 777.3 232.13 772.76 232.13 772.76 254.52 777.62 254.52 777.62 240.29 788.46 254.52 792.65 254.52 792.67 232.13"/><polygon class="cls-13" points="950.7 209.75 945.81 209.75 945.81 223.53 935.32 209.75 930.78 209.75 930.78 232.13 935.64 232.13 935.64 217.9 946.49 232.13 950.67 232.13 950.7 209.75"/><polygon class="cls-13" points="970.61 299.58 965.73 299.58 965.73 313.37 955.24 299.58 950.7 299.58 950.7 321.97 955.55 321.97 955.55 307.74 966.4 321.97 970.59 321.97 970.61 299.58"/><polygon class="cls-13" points="812.58 321.97 807.7 321.97 807.7 335.75 797.21 321.97 792.67 321.97 792.67 344.36 797.53 344.36 797.53 330.12 808.37 344.36 812.56 344.36 812.58 321.97"/><path class="cls-10" d="M824.92,232.83a159.22,159.22,0,0,1-15.86,5.44,121.7,121.7,0,0,1-12.17,2.37l-2,.28-1.9.27a.39.39,0,0,0-.33.44l1.93,15.82.12,1,.12,1,.44,3.6a.39.39,0,0,0,.39.35h.07c2-.33,8.26-1.24,13.34-2.53a92.87,92.87,0,0,0,13.51-4.69.15.15,0,0,0,.09-.16l-1.14-8.31a2.38,2.38,0,0,1,1.32-2.48c.3-.14.77-.39,1.36-.7l1.06-.56a.31.31,0,0,0,.17-.28V233.2C825.45,233,825.45,232.61,824.92,232.83Z"/><path class="cls-10" d="M856.89,236.09h-.09a153.7,153.7,0,0,0-15.92,4.6A163.43,163.43,0,0,0,824.72,248a.38.38,0,0,0-.21.4l1.07,7.82.14,1,.14,1,1.42,10.39a.39.39,0,0,0,.39.34.39.39,0,0,0,.17,0c2-1,9.66-4.72,13.69-6.36a73.58,73.58,0,0,1,10.55-3.32.18.18,0,0,0,.14-.19l-.9-9.6a2.52,2.52,0,0,1,.35-1.6,2.38,2.38,0,0,1,1.81-1.1l3.66-.34a.17.17,0,0,0,.15-.17v-9.86A.39.39,0,0,0,856.89,236.09Z"/><path class="cls-10" d="M886.74,250.5a79.54,79.54,0,0,0-16.09-1.65c-3.51,0-12,.62-12.37.64l-3.64.33a.39.39,0,0,0-.36.43l.9,9.59,1.11,11.85a.39.39,0,0,0,.39.36h0c1.85-.19,8.47-1,13.11-1h.82c1.94,0,4.19.23,6.41.45l-.8-6.38a2.4,2.4,0,0,1,2.06-2.67l1.34-.17c1.71-.21,4.46-.54,7.42-1V250.9A.4.4,0,0,0,886.74,250.5Z"/><path class="cls-10" d="M911.63,257.8a156.14,156.14,0,0,1-16.08,5.12c-1.74.4-7.14,1.32-7.47,1.37-3.82.58-7.21,1-8.5,1.13a.39.39,0,0,0-.34.44l.86,6.85,1.76,13.92a.39.39,0,0,0,.39.35h0a111.94,111.94,0,0,0,13.31-1.87c2.64-.6,5.12-1.28,7.37-2l-1-9.68a2.38,2.38,0,0,1,1.89-2.6l1.56-.35c1.59-.37,3.92-.91,6.63-1.41V258.2A.39.39,0,0,0,911.63,257.8Z"/><path class="cls-10" d="M937.34,270.7a140.33,140.33,0,0,0-16.24.26,133.38,133.38,0,0,0-15.88,2.85.39.39,0,0,0-.29.42l2.27,21.17a.39.39,0,0,0,.39.35s6-1.26,9.7-1.9l-.38-3.5a2.39,2.39,0,0,1,2.38-2.65h0a162.81,162.81,0,0,1,18.18,4.09.19.19,0,0,0,.25-.18V271.1A.39.39,0,0,0,937.34,270.7Z"/><path class="cls-10" d="M935.28,293.88h0c-4.91-1.39-15-3.18-15-3.18a.39.39,0,0,0-.39.44l2.37,22.1a.39.39,0,0,0,.32.35,102.73,102.73,0,0,1,12.68,2.49c5.36,1.59,13.85,5.28,15.23,5.89h.06a.14.14,0,0,0,.14-.14V300.08a.35.35,0,0,0-.21-.33C949.42,299.28,939.75,294.82,935.28,293.88Z"/><path class="cls-10" d="M811.41,313.49l-10.85-14.25v14.25h-4.87V291.08h4.55l10.5,13.8v-13.8h4.87v22.41Z"/><path class="cls-10" d="M832.14,304.56v8.93h-4.93v-8.84l-8.61-13.57h5.76l5.35,9,5.44-9h5.6Z"/><path class="cls-10" d="M852.44,313.88a11.31,11.31,0,0,1-11.49-11.52v-.06a11.39,11.39,0,0,1,11.69-11.59,11.56,11.56,0,0,1,8.83,3.46l-3.14,3.62a8.27,8.27,0,0,0-5.73-2.53c-3.78,0-6.5,3.14-6.5,7v.06c0,3.84,2.66,7,6.5,7,2.56,0,4.13-1,5.89-2.62l3.14,3.17A11.45,11.45,0,0,1,852.44,313.88Z"/><path class="cls-10" d="M871.24,313.81a9.16,9.16,0,0,1-7.33-3.36L867,307c1.28,1.41,2.53,2.24,4.1,2.24,1.86,0,3-1.12,3-3.71V291.08h5.06v14.66C879.18,311.19,876,313.81,871.24,313.81Z"/><path class="cls-10" d="M899.78,313.49l-2-5h-9.48l-2,5h-5l9.6-22.57h4.55l9.6,22.57ZM893,296.85l-3,7.27h6Z"/></g></g></svg>